<svg xmlns="http://www.w3.org/2000/svg" viewBox="0 0 100.38 100.37"><defs><style>.cls-1{fill:#fff;}</style></defs><title>Asset 8</title><g id="Layer_2" data-name="Layer 2"><g id="レイアウト"><path class="cls-1" d="M50.18,21.6A28.84,28.84,0,1,0,79,50.43,28.83,28.83,0,0,0,50.18,21.6M48.05,33a2.14,2.14,0,0,1,4.28,0v9.9a2.14,2.14,0,0,1-4.28,0Zm2.14,32.22a15,15,0,0,1-4.46-29.32v5.58a9.82,9.82,0,1,0,8.89,0V35.88a15,15,0,0,1-4.43,29.33"/><path class="cls-1" d="M17.08,50.18a2.4,2.4,0,0,0-2.22-2.36H2.23a2.37,2.37,0,0,0,0,4.74H14.86a2.42,2.42,0,0,0,2.22-2.38"/><path class="cls-1" d="M100.38,50.18a2.4,2.4,0,0,0-2.22-2.36H85.53a2.37,2.37,0,0,0,0,4.74H98.16a2.42,2.42,0,0,0,2.22-2.38"/><path class="cls-1" d="M50.19,100.37a2.41,2.41,0,0,0,2.37-2.21V85.53a2.37,2.37,0,0,0-4.74,0V98.16a2.41,2.41,0,0,0,2.37,2.21"/><path class="cls-1" d="M93.75,75.11A2.4,2.4,0,0,0,93,72L82,65.68a2.38,2.38,0,0,0-2.36,4.12l11,6.27a2.41,2.41,0,0,0,3.1-1"/><path class="cls-1" d="M25.26,93.75A2.42,2.42,0,0,0,28.42,93l6.27-11a2.38,2.38,0,0,0-4.12-2.36l-6.27,11a2.44,2.44,0,0,0,1,3.11"/><path class="cls-1" d="M75.21,93.69a2.42,2.42,0,0,0,1-3.1l-6.3-11A2.38,2.38,0,0,0,65.75,82L72.05,93a2.42,2.42,0,0,0,3.16.73"/><path class="cls-1" d="M6.68,75.21a2.42,2.42,0,0,0,3.1,1l11-6.3a2.37,2.37,0,0,0-2.36-4.11L7.42,72a2.43,2.43,0,0,0-.74,3.17"/><path class="cls-1" d="M50.19,17.08a2.41,2.41,0,0,0,2.37-2.22V2.23a2.37,2.37,0,0,0-4.74,0V14.86a2.41,2.41,0,0,0,2.37,2.22"/><path class="cls-1" d="M21.45,33.74a2.41,2.41,0,0,0-.74-3.16l-11-6.27a2.38,2.38,0,0,0-2.36,4.12l11,6.27a2.43,2.43,0,0,0,3.1-1"/><path class="cls-1" d="M66.64,21.45a2.41,2.41,0,0,0,3.15-.74l6.27-11A2.37,2.37,0,0,0,72,7.39l-6.27,11a2.41,2.41,0,0,0,1,3.1"/><path class="cls-1" d="M33.69,21.48a2.41,2.41,0,0,0,.94-3.1L28.34,7.43A2.38,2.38,0,0,0,24.23,9.8l6.29,10.94a2.42,2.42,0,0,0,3.17.74"/><path class="cls-1" d="M78.89,33.69a2.41,2.41,0,0,0,3.1.94l11-6.29a2.37,2.37,0,0,0-2.36-4.11l-11,6.29a2.43,2.43,0,0,0-.74,3.17"/></g></g></svg>