<svg xmlns="http://www.w3.org/2000/svg" viewBox="0 0 73.06 100.42"><defs><style>.cls-1{fill:#fff;}</style></defs><title>Asset 7</title><g id="Layer_2" data-name="Layer 2"><g id="レイアウト"><path class="cls-1" d="M72.86.28A.87.87,0,0,0,72.21,0H.83A.86.86,0,0,0,.19.28.86.86,0,0,0,0,1L12,73.49a.85.85,0,0,0,.83.7H27.55l1,11.81H22.36l14.41,14.41L51.22,86H45l1-11.8H61a.83.83,0,0,0,.82-.71L73.05,1A.87.87,0,0,0,72.86.28ZM45.27,58.35a11.46,11.46,0,0,1-8.52,3,11.46,11.46,0,0,1-8.52-3c-5.35-5.34-3.44-12-1.58-15.42C27.8,40.77,36,28.44,36.72,27.39V27.3l0,0,0,0v.09c.69,1.05,8.92,13.38,10.07,15.54C48.71,46.36,50.62,53,45.27,58.35ZM67.92,15.54C66,14.69,63.53,15,61.17,16c-8.85,3.59-14.88,4.88-24.2,2-5.86-1.84-11.35-5.69-17.84-3.34-4.31,1.54-8.32,3-13.19,3L3.13,3.15H69.94Z"/></g></g></svg>