<svg xmlns="http://www.w3.org/2000/svg" viewBox="0 0 145.58 74.23"><defs><style>.cls-1{fill:#fff;}</style></defs><title>Asset 15</title><g id="Layer_2" data-name="Layer 2"><g id="レイアウト"><path class="cls-1" d="M145,36.4C139.84,29.12,116.43.06,72.84,0S5.77,28.94.57,36.2L0,37l.56.82c5.19,7.27,28.59,36.34,72.18,36.4S139.82,45.29,145,38c.23-.32.42-.59.57-.82q-.22-.35-.57-.81M48.5,18.32c.4-.57,1.71-2.22,1.86-2.42a2.36,2.36,0,0,1,1.47-.61c.47-.08,1.08.18,1.16.52a4,4,0,0,1-.41,1.93,5,5,0,0,1-3.22,1.45c-.71-.11-1-.66-.86-.87m-1.56,3.1.16-.19a4.11,4.11,0,0,1,2.4-.87c.75-.13,1.76.26,1.88.76s-1.9,1.41-2.27,1.76c-1,1-2.69,2.92-3.65,3.14a1.14,1.14,0,0,1-.79-.09,30.69,30.69,0,0,1,2.27-4.51M63.21,54.91a8.66,8.66,0,0,1-1.87,3.89,6.25,6.25,0,0,1-4.14,1.57c-1.38-.1-1.57-3.79-1.57-5.68,0-.66-.93,1.28-1.41-2.66-.3-2.53-1.93.26-2-1.43s-.92-1.34-1.77-2.4-1.91.1-3.09.63-.7.8-2.37.27l-.11,0a30.38,30.38,0,0,1-2.37-11.82c0-1,.06-2,.16-3a2,2,0,0,1,.19-.28c1.61-1.9,1.57-2.35,1.57-2.35L46.17,31a29.6,29.6,0,0,1,5,1.25c1.76.66,4.53,2.16,6.14,1.5,1.17-.48,2.08-1.11,2-2.08-.13-1.22-1.08-1.51-2.25-.69-.42.3-1.33-1.84-2-1.73s.88,2.51.28,2.61-1.83-2.51-2-2.93-1.15-1.47-2-.67c-1.79,1.7-4.7,1.59-5.29,2-1.77,1.32-2.24-.44-2.2-1.52.07-.25.14-.49.22-.74a3.63,3.63,0,0,1,3.38-.37c.79.53,1.35-.13,1.66-.45A1.1,1.1,0,0,0,49,26c-.2-.43.39-.73.8-.84a22.63,22.63,0,0,0,2.3-1.37,7.6,7.6,0,0,1,4.61,0,2.43,2.43,0,0,0,3-.61,8.09,8.09,0,0,1,2.21-1.83c.44-.21-1.08-1.63-2.34-.08s-1.89,1.68-2.48,1.68-4.1-.88-4.53-2S53.67,19,55,18.33s4.84-.6,5.74-.8c1.85-.4,4.2-1.32,5.38-.52s-4.95,2.19-2.94,3.28c.72.39,4-1.86,5.07-2.44,2.62-1.34-2.53-1.79-1.86-4.53.76-3.09-6.3-1.91-9.82-1.65a30.36,30.36,0,0,1,45.85,18.55,4.87,4.87,0,0,1-.15,1.4,2,2,0,0,1-3.56.27c-.3-.44-1.6-1.67-1.56.43s2,2.32.1,3.58A7.37,7.37,0,0,1,94,37.17c-.89.32-1.76,2.49-1.55,3.65s3,4.33.93,4.19c-.49,0-4.11-2.52-4.71-4.11s-1.32-3.32-1.8-4.59A1.81,1.81,0,0,0,84,35.47c-1.08.73.3,1.47-.48,3.06s-1.34,3-2.48,1.68c-3-3.4-7.26-1.73-7.93-5.51-.37-2.05-2.13-1.86-3.6-3s-2.31-1.79-2.56-.95,4.63,4.59,5,5.58c.51,1.47-1.46,2.76-2.9,3.1S67,38.6,65.56,37.13s-2-2.53-2.13-1.37c-.14,1.67,1.34,4.12,2.78,5,1.23.78,2.61,1.13,2.21,2.4s0,.55-1.39,1.91-1.64,1.8-1.55,3.69-.39,2-.69,3.58-1,.22-1.58,2.53M95.8,42.84c1-.08,2.55,1.34,2,1.88s-2.12.34-2.89-.26.48-1.58.94-1.62m-1.29-.93c-.32-.12-.61-.44-.86-1.18a.68.68,0,0,1,1-.87,2.93,2.93,0,0,1,1.43,1.74c0,.5-1.22.44-1.56.31m-13.4-.07a2.74,2.74,0,0,1-2.9-.27c-.76-.59.48-1.58.94-1.61,1-.09,2.56,1.34,2,1.88m-12.41,6c-.42.68-1.57,5.79-2.33,5.19s.32-5.92.54-6.32c1.2-2.2,3.8-2.09,1.79,1.13m4.1,19.8a30.44,30.44,0,0,1-8.53-1.24,1.25,1.25,0,0,1-.37-1.48c.95-2.45,3.75-3.41,5.95-3.61,4.93-.48,11.4,3.21,12.43,2.62s3.12-3.3,6.17-3.18a4.73,4.73,0,0,1,2.77.7A30.29,30.29,0,0,1,72.8,67.65m21.43-8.81a5.67,5.67,0,0,1-1-.36c-1.66-.84-1.46.51-2.28.21s.93-2.2-1.52-.6-1.78-.25-2.84-3,1.23-5.79,3.15-6.49a38.14,38.14,0,0,1,5.51-1.44c3.65-.91,4.43-3.07,5.09-1.76l.35.71a4.79,4.79,0,0,1,.47,2,30.57,30.57,0,0,1-7,10.7m8.34-15.32c-.81-.23-4.22-4.94-1.52-8,.45-.51-.9-2-.53-2,1.47-.11,2.26.8,2.64,2.12,0,.58,0,1.17,0,1.76a30.11,30.11,0,0,1-.64,6.2"/></g></g></svg>