<svg xmlns="http://www.w3.org/2000/svg" viewBox="0 0 94.59 100.01"><defs><style>.cls-1{fill:#fff;}</style></defs><title>Asset 9</title><g id="Layer_2" data-name="Layer 2"><g id="レイアウト"><path class="cls-1" d="M85.5,23.67l-20,19a3.31,3.31,0,0,0-1.14,2.86V98.87A1.14,1.14,0,0,0,65.5,100H86.16a1.14,1.14,0,0,0,1.14-1.14V24.15c0-.63-.5-1.78-1.8-.48"/><path class="cls-1" d="M27.88,48.45l-20,19a3.31,3.31,0,0,0-1.14,2.85V98.87A1.15,1.15,0,0,0,7.88,100H28.54a1.15,1.15,0,0,0,1.14-1.14V48.93c0-.63-.5-1.78-1.8-.48"/><path class="cls-1" d="M94.59.6a.57.57,0,0,0-.17-.44A.61.61,0,0,0,94.05,0h-.27L78.46,3.47l-.28,0a.56.56,0,0,0-.29.16.57.57,0,0,0,0,.82l.17.17,3.5,3.5-34.7,34.7-16-16a.46.46,0,0,0-.65,0l-4.35,4.35h0L.13,56.86a.49.49,0,0,0,0,.66l4.36,4.35a.46.46,0,0,0,.65,0L30.51,36.5,42.14,48.13s0,0,0,.06l4.35,4.34a.45.45,0,0,0,.66,0L86.56,13.15l3.67,3.67a.57.57,0,0,0,.82,0,.54.54,0,0,0,.16-.37V16.4L94.58.76Z"/><path class="cls-1" d="M56.8,51.79l-9.67,9.76a.46.46,0,0,1-.63,0l-8.76-8.93c-1.61-1.6-2-.3-2,.32v46A1.14,1.14,0,0,0,36.92,100H57.58a1.15,1.15,0,0,0,1.14-1.14V52.15c0-.63-.5-1.78-1.92-.36"/></g></g></svg>