<svg xmlns="http://www.w3.org/2000/svg" viewBox="0 0 77.62 104.73"><defs><style>.cls-1{fill:#fff;}</style></defs><title>Asset 6</title><g id="Layer_2" data-name="Layer 2"><g id="レイアウト"><path class="cls-1" d="M46.43,35.08H17.83a.29.29,0,0,0-.31.28v6.92a.29.29,0,0,0,.31.28h28.6a.3.3,0,0,0,.32-.28V35.36a.3.3,0,0,0-.32-.28"/><path class="cls-1" d="M77.31,0H52.85a.31.31,0,0,0-.31.31V8.44a.31.31,0,0,0,.31.31h9.74L51.78,19.57A32,32,0,1,0,27.9,76.51v9.36H18.25a.31.31,0,0,0-.32.31v8.71a.31.31,0,0,0,.32.31H27.9v9.22a.31.31,0,0,0,.31.31h8.7a.32.32,0,0,0,.32-.31V95.2h9.64a.31.31,0,0,0,.31-.31V86.18a.31.31,0,0,0-.31-.31H37.23V76.36a32,32,0,0,0,21-50L68.87,15.67v9.1a.31.31,0,0,0,.31.31h8.13a.31.31,0,0,0,.31-.31V.31A.31.31,0,0,0,77.31,0M32,68.33A23.58,23.58,0,1,1,55.61,44.75,23.6,23.6,0,0,1,32,68.33"/><path class="cls-1" d="M46.43,47.44H17.83a.3.3,0,0,0-.31.29v6.92a.3.3,0,0,0,.31.28h28.6a.3.3,0,0,0,.32-.28V47.73a.3.3,0,0,0-.32-.29"/></g></g></svg>