<svg xmlns="http://www.w3.org/2000/svg" viewBox="0 0 131.93 92.28"><defs><style>.cls-1{fill:#fff;}</style></defs><title>Asset 3</title><g id="Layer_2" data-name="Layer 2"><g id="レイアウト"><path class="cls-1" d="M131.93,48.82c0-5.53-3.56-10-8.94-10-2.69,0-5.93,2.94-7.69,4.76-1.77-1.82-4.8-4.77-7.49-4.77-5.38,0-9.15,4.49-9.15,10a10.16,10.16,0,0,0,2.85,7.09h0l13.8,13.82,13.77-13.81h0A10.15,10.15,0,0,0,131.93,48.82Z"/><path class="cls-1" d="M73.2,92.28h-.14A2.26,2.26,0,0,1,71,90.4L64,49.6,53.35,69.28a2.26,2.26,0,0,1-4.23-.76L44.61,37,36.37,55.55a2.26,2.26,0,0,1-2.07,1.34h-32a2.27,2.27,0,1,1,0-4.53H32.83L43.67,28a2.27,2.27,0,0,1,4.31.6l4.65,32.47L63.09,41.67a2.29,2.29,0,0,1,2.37-1.16,2.26,2.26,0,0,1,1.86,1.86l6.49,37.79L97.45,1.61a2.27,2.27,0,0,1,4.21-.33L114.1,27.07A2.27,2.27,0,1,1,110,29L100.11,8.49,75.37,90.67A2.26,2.26,0,0,1,73.2,92.28Z"/></g></g></svg>