<svg xmlns="http://www.w3.org/2000/svg" viewBox="0 0 99.93 100.93"><defs><style>.cls-1{fill:#fff;}</style></defs><title>Asset 10</title><g id="Layer_2" data-name="Layer 2"><g id="レイアウト"><path class="cls-1" d="M99.13,56.06,75.74,42.56v-27a1.58,1.58,0,0,0-.8-1.38L50.76.21a1.61,1.61,0,0,0-1.59,0L25,14.18a1.6,1.6,0,0,0-.8,1.38v27L.8,56.06A1.59,1.59,0,0,0,0,57.44V85.37a1.58,1.58,0,0,0,.8,1.38l24.18,14a1.56,1.56,0,0,0,1.6,0L50,87.22l23.39,13.49a1.53,1.53,0,0,0,.8.22,1.5,1.5,0,0,0,.79-.22l24.19-14a1.58,1.58,0,0,0,.8-1.38V57.44A1.59,1.59,0,0,0,99.13,56.06ZM48.37,82.61,29,71.41l19.4-11.2ZM71,43.48,51.56,54.68V32.28ZM48.37,54.68,29,43.48l19.4-11.2Zm4.79,2.76,21-12.11,21,12.11-21,12.13ZM72.55,40.72,53.16,29.52l19.39-11.2ZM46.77,29.52l-19.4,11.2V18.32ZM24.18,96.57l-21-12.12V60.21l21,12.12Zm3.19,0V74.17l19.4,11.2ZM96.74,84.45l-21,12.12V72.33l21-12.12Z"/></g></g></svg>