<svg xmlns="http://www.w3.org/2000/svg" viewBox="0 0 106.53 90.14"><defs><style>.cls-1{fill:#fff;}</style></defs><title>Asset 16</title><g id="Layer_2" data-name="Layer 2"><g id="レイアウト"><path class="cls-1" d="M106.31,65.45c-2.48-3.34-18.47-23.73-40.9-23.73-19.47,0-40.31,17.66-40.31,17.66s-7.82-16-23.83-17.56l-.3,0H.87a.66.66,0,0,0-.61.64A1.84,1.84,0,0,0,.51,43c2.06,3.43,7.33,13.17,7.33,22.91S2.54,85.47.5,88.88l-.14.22a.61.61,0,0,0-.1.33.63.63,0,0,0,.59.63H1a.47.47,0,0,0,.17,0C17.25,88.54,25.1,72.47,25.1,72.47S45.94,90.14,65.41,90.14c22.43,0,38.42-20.4,40.9-23.74l.17-.23a.6.6,0,0,0,0-.24.66.66,0,0,0,0-.25l-.17-.23M77.88,68.51A6.55,6.55,0,1,1,84.43,62a6.56,6.56,0,0,1-6.55,6.55"/><path class="cls-1" d="M23.64,23.44a.49.49,0,0,1,.17-.18.62.62,0,0,1,.35-.12.63.63,0,0,1,.44.18l0,0c12.22,11.66,25.05,2.21,27.71,0l.27-.24a.6.6,0,0,1,.24-.05.75.75,0,0,1,.26.05l.26.24C56,25.55,68.86,35,81.08,23.34l0,0a.6.6,0,0,1,.43-.18.62.62,0,0,1,.36.12.77.77,0,0,1,.18.18c2.37,2.33,12.6,11.14,23.44,1.73a.66.66,0,0,0,.19-.45V20.24a.64.64,0,0,0-.64-.64l-.14,0-.32.16c-3.33,1.67-13.66,5.63-23-3.23l-.27-.26a.52.52,0,0,0-.28-.06.34.34,0,0,0-.19.05.53.53,0,0,0-.33.24c-2.79,2.12-15.61,10.81-27,.15l-.17-.16a.63.63,0,0,0-.46-.18.61.61,0,0,0-.45.18l-.17.16c-11.42,10.66-24.25,2-27-.15a.51.51,0,0,0-.32-.24.35.35,0,0,0-.2-.05.51.51,0,0,0-.27.06,3.45,3.45,0,0,1-.28.26c-9.37,8.86-19.69,4.9-23,3.23l-.33-.16a.61.61,0,0,0-.13,0,.64.64,0,0,0-.64.64v4.48a.62.62,0,0,0,.19.45c10.82,9.41,21.07.6,23.45-1.73"/><path class="cls-1" d="M.77,3.38l-.13,0A.65.65,0,0,0,0,4V8.47a.61.61,0,0,0,.19.46C11,18.34,21.26,9.53,23.64,7.2A.58.58,0,0,1,23.8,7a.76.76,0,0,1,.36-.11.64.64,0,0,1,.44.17l0,0c12.22,11.67,25.05,2.22,27.71,0l.27-.24a.47.47,0,0,1,.24-.05.51.51,0,0,1,.25.05l.27.24C56,9.32,68.86,18.77,81.08,7.1l0,0a.6.6,0,0,1,.43-.17A.73.73,0,0,1,81.9,7a1.09,1.09,0,0,1,.18.19c2.37,2.33,12.61,11.14,23.44,1.73a.65.65,0,0,0,.19-.46V4a.64.64,0,0,0-.64-.65l-.14,0a2.4,2.4,0,0,1-.32.17C101.28,5.22,91,9.19,81.58.32L81.31.06A.64.64,0,0,0,81,0l-.19,0a.85.85,0,0,0-.33.25c-2.79,2.13-15.61,10.81-27,.16L53.31.28a.69.69,0,0,0-.46-.19.66.66,0,0,0-.45.19l-.17.16c-11.42,10.65-24.25,2-27-.16A.81.81,0,0,0,24.87,0a1.38,1.38,0,0,0-.2,0,.6.6,0,0,0-.27.06l-.28.26c-9.37,8.87-19.69,4.9-23,3.23a2.55,2.55,0,0,1-.33-.17"/></g></g></svg>