<svg xmlns="http://www.w3.org/2000/svg" viewBox="0 0 96.42 94.52"><defs><style>.cls-1{fill:#fff;}</style></defs><title>Asset 17</title><g id="Layer_2" data-name="Layer 2"><g id="レイアウト"><path class="cls-1" d="M26.51,54.85h5.8a.44.44,0,0,1,.44.44V69.61a.44.44,0,0,1-.44.44h-5.8a.44.44,0,0,1-.44-.44V55.28A.43.43,0,0,1,26.51,54.85Z"/><path class="cls-1" d="M96,76.2H.44a.45.45,0,0,0-.44.45v5.84a.44.44,0,0,0,.44.43H96a.44.44,0,0,0,.44-.43V76.65A.45.45,0,0,0,96,76.2"/><path class="cls-1" d="M96,87.81H.44a.44.44,0,0,0-.44.43v5.85a.44.44,0,0,0,.44.43H96a.44.44,0,0,0,.44-.43V88.24a.44.44,0,0,0-.44-.43"/><path class="cls-1" d="M77.8,39a14.08,14.08,0,0,0-8.26-3.12,11.05,11.05,0,0,0-7.67,3.26.81.81,0,0,0-.26.6v.52a.83.83,0,0,0,.27.66.8.8,0,0,0,.68.15.53.53,0,0,0,.17,0,1.26,1.26,0,0,0,.48-.3,7.67,7.67,0,0,1,3.83-.8,14.42,14.42,0,0,1,9.84,4.13l.09.07a1.15,1.15,0,0,0,1.64,0l.08-.08a14.48,14.48,0,0,1,9.86-4.13,7.64,7.64,0,0,1,3.83.8,1.53,1.53,0,0,0,.53.32,1.36,1.36,0,0,0,.56,0,.81.81,0,0,0,.6-.79v-.46a.82.82,0,0,0-.25-.59,11.07,11.07,0,0,0-7.77-3.35A14.05,14.05,0,0,0,77.8,39"/><path class="cls-1" d="M71.87.91a.77.77,0,0,0-.41.5l-.1.32a.81.81,0,0,0,.13.72.77.77,0,0,0,.59.32h.12a1.07,1.07,0,0,0,.46-.11,2.14,2.14,0,0,1,.58-.07,8.29,8.29,0,0,1,6.82,4.46l0,.06a1,1,0,0,0,.61.49,1.34,1.34,0,0,0,.3.05,1,1,0,0,0,.48-.12l.07,0a9.45,9.45,0,0,1,4.26-1.06,6.51,6.51,0,0,1,4.36,1.4,1,1,0,0,0,.32.35,1.77,1.77,0,0,0,.31.15l.14,0H91a.75.75,0,0,0,.38-.1.78.78,0,0,0,.41-.48l.08-.29a.85.85,0,0,0,0-.23.81.81,0,0,0-.11-.41A7.19,7.19,0,0,0,85.34,3a10.25,10.25,0,0,0-3.44.64C81,2.43,78.81,0,75.46,0a7.9,7.9,0,0,0-3.59.91"/><path class="cls-1" d="M51.68,15.61l0,.43a.82.82,0,0,0,1,.74l.14-.05a1,1,0,0,0,.41-.3,7,7,0,0,1,3.64-.83,11.83,11.83,0,0,1,7.56,2.86l.07.07a1.09,1.09,0,0,0,.73.28h.07a1.19,1.19,0,0,0,.75-.36l.07-.08a11.46,11.46,0,0,1,8.37-3.87A5.56,5.56,0,0,1,77,15a1.31,1.31,0,0,0,.5.25,1.06,1.06,0,0,0,.35,0l.2-.05a.8.8,0,0,0,.54-.82l0-.38a.77.77,0,0,0-.29-.56A9.36,9.36,0,0,0,72.21,11a11.4,11.4,0,0,0-7.15,3,12,12,0,0,0-6.37-2.12A9.09,9.09,0,0,0,51.91,15a.81.81,0,0,0-.23.61"/><path class="cls-1" d="M3.33,23.28A10.36,10.36,0,0,1,13.69,12.92c.23,0,.44,0,.67,0a14,14,0,1,1,26.56,7.17,15.66,15.66,0,0,1-3.4,31l-20.9-.13h0A11.07,11.07,0,0,1,8.55,32.26,10.35,10.35,0,0,1,3.33,23.28Z"/></g></g></svg>