<svg xmlns="http://www.w3.org/2000/svg" viewBox="0 0 156.73 70.75"><defs><style>.cls-1{fill:#fff;}.cls-2{fill:none;stroke:#fff;stroke-linecap:round;stroke-miterlimit:10;stroke-width:15.16px;}</style></defs><title>Asset 20</title><g id="Layer_2" data-name="Layer 2"><g id="レイアウト"><path class="cls-1" d="M138.33,5.45a5.45,5.45,0,1,1,5.45,5.45,5.45,5.45,0,0,1-5.45-5.45"/><path class="cls-1" d="M150.14,13a7.25,7.25,0,0,1,6.59,7.23v15.1a2.11,2.11,0,1,1-4.22,0v-13c0-.48-.14-1.14-1-1.14-.61,0-.74.65-.76,1.06V61.16a3,3,0,0,1-6.08,0V38.76a.82.82,0,0,0-.86-.89h0a.84.84,0,0,0-.88.89v22.4a3,3,0,1,1-6.06,0V22.28c0-.41-.15-1.06-.76-1.06-.9,0-1,.66-1,1.14v13a2.12,2.12,0,0,1-4.23,0V20.23a7.26,7.26,0,0,1,6.6-7.23,2.58,2.58,0,0,1,.4,0h11.91a2.59,2.59,0,0,1,.41,0"/><path class="cls-1" d="M105.94,8.31a5.16,5.16,0,1,0-5.15,5.16,5.15,5.15,0,0,0,5.15-5.16"/><path class="cls-1" d="M90.39,20,86.11,34s-.77,2.56,1.4,3.2,2.82-1.86,2.82-1.86l3.46-11.65s.18-.89.86-.7.42,1.15.42,1.15l-6,21.83h5.6V61.56a2.69,2.69,0,0,0,5.37,0V45.92h1.53V61.56a2.69,2.69,0,0,0,5.37,0V45.92h5.6l-6-21.83s-.25-1,.42-1.15.87.7.87.7l3.45,11.65s.66,2.5,2.82,1.86,1.4-3.2,1.4-3.2l-4.28-14s-1.54-4-4.93-4H95.32c-3.39,0-4.93,4-4.93,4"/><path class="cls-1" d="M75.05,8.31a5.16,5.16,0,1,0-5.16,5.16,5.16,5.16,0,0,0,5.16-5.16"/><path class="cls-1" d="M59.5,20,55.21,34s-.76,2.56,1.41,3.2,2.81-1.86,2.81-1.86l3.46-11.65s.19-.89.86-.7.42,1.15.42,1.15l-6,21.83h5.6V61.56a2.69,2.69,0,0,0,5.38,0V45.92h1.52V61.56a2.69,2.69,0,0,0,5.38,0V45.92h5.59l-6-21.83s-.25-1,.42-1.15.86.7.86.7l3.46,11.65s.65,2.5,2.81,1.86S84.57,34,84.57,34L80.28,20s-1.53-4-4.92-4H64.43C61,16,59.5,20,59.5,20"/><path class="cls-1" d="M123.26,37.18a4.3,4.3,0,1,0-4.29-4.3,4.29,4.29,0,0,0,4.29,4.3"/><path class="cls-1" d="M113,50.52a1.49,1.49,0,0,0,.63,2,1.44,1.44,0,0,0,1.84-.6l2.33-7.44s.41-.5.41,0V62h0a2.2,2.2,0,1,0,4.4,0V55.13s-.13-1,.66-1,.67,1,.67,1V62a2.21,2.21,0,1,0,4.41,0V44.52c0-.51.27-.14.27-.14l1.83,5.09a12.5,12.5,0,0,0,1,2.38,1.63,1.63,0,0,0,2-2.45h0c-.05-.17-2.73-6.74-3.05-7.67-1-2.82-2.73-2.8-4.43-2.85s-2.71,0-2.71,0-1.08,0-3.32,0-3,1.21-5.42,7.56c-.35.92-1.54,3.88-1.56,4Z"/><path class="cls-1" d="M29,5.45a5.45,5.45,0,1,0-5.45,5.45A5.45,5.45,0,0,0,29,5.45"/><path class="cls-1" d="M17.17,13a7.26,7.26,0,0,0-6.6,7.23v15.1a2.12,2.12,0,0,0,4.23,0v-13c0-.48.14-1.14,1-1.14.61,0,.74.65.77,1.06V61.16a3,3,0,0,0,6.06,0V38.76a.84.84,0,0,1,.87-.89h0a.84.84,0,0,1,.88.89v22.4a3,3,0,1,0,6.06,0V22.28c0-.41.16-1.06.77-1.06.89,0,1,.66,1,1.14v13a2.11,2.11,0,0,0,4.22,0V20.23A7.26,7.26,0,0,0,29.89,13a2.35,2.35,0,0,0-.4,0H17.58a2.59,2.59,0,0,0-.41,0"/><line class="cls-2" x1="12.42" y1="37.53" x2="7.58" y2="63.17"/><path class="cls-1" d="M39.08,34.93a1.58,1.58,0,0,0-1.33-.73,1.56,1.56,0,0,0-1.56,1.56,2.81,2.81,0,0,0,.15.68l4.33,7.84a2.81,2.81,0,0,1,.26,1V62.13h0a2.12,2.12,0,0,0,4.23,0V55.49s-.12-.94.64-.94.63.94.63.94v6.64a2.12,2.12,0,0,0,4.24,0V45.31a2.81,2.81,0,0,1,.26-1l4-7.24a6.91,6.91,0,0,0,.49-1.28,1.57,1.57,0,0,0-2.89-.83h0c-.13.11-2.13,3.68-2.79,4.34a1.74,1.74,0,0,1-1.33.62h-5.2a1.74,1.74,0,0,1-1.33-.62c-.67-.66-2.66-4.23-2.79-4.34Z"/><path class="cls-1" d="M45.81,37.18a4.3,4.3,0,1,0-4.3-4.3,4.29,4.29,0,0,0,4.3,4.3"/><polygon class="cls-1" points="45.81 43.21 50.67 46.74 52.97 55.23 45.81 55.23 38.65 55.23 40.96 46.74 45.81 43.21"/></g></g></svg>