<svg xmlns="http://www.w3.org/2000/svg" viewBox="0 0 94.4 88.35"><defs><style>.cls-1{fill:#fff;}</style></defs><title>Asset 18</title><g id="Layer_2" data-name="Layer 2"><g id="レイアウト"><path class="cls-1" d="M81.18.72s-1.91,2.54-1.36,5S83.2,9.67,83.2,9.67s1.91-2.54,1.36-5S81.18.72,81.18.72"/><path class="cls-1" d="M78.07,15.21s1.91-2.54,1.35-5S76,6.26,76,6.26s-1.91,2.53-1.35,5,3.38,4,3.38,4"/><path class="cls-1" d="M85.92,12.49s2,2,4.31,1.83,4-2.57,4-2.57-2-2-4.31-1.83-4,2.57-4,2.57"/><path class="cls-1" d="M89.22,1.62c-1.87,1.9-1.6,5.26-1.6,5.26s3.29.28,5.16-1.61S94.39,0,94.39,0s-3.3-.29-5.17,1.6"/><path class="cls-1" d="M85.1,20c2.29.27,4.44-1.69,4.44-1.69S88,15.93,85.69,15.66s-4.44,1.7-4.44,1.7,1.56,2.4,3.85,2.67"/><path class="cls-1" d="M87.14,56.83H70a2.42,2.42,0,0,0,0,4.84H87.14a2.42,2.42,0,0,0,0-4.84"/><path class="cls-1" d="M87.14,83.51H70a2.42,2.42,0,0,0,0,4.84H87.14a2.42,2.42,0,0,0,0-4.84"/><path class="cls-1" d="M10.19,51A11.36,11.36,0,0,0,9,50.65s.44.13,1.18.3"/><path class="cls-1" d="M86.51,63.36H70.66a1.38,1.38,0,0,0-1.38,1.38v4.8L58.93,70.68l-15.12-.35V61.1a42.54,42.54,0,0,0,6-1.22c14.55-4.11,17.73-13.18,17.41-21.5-.32-8.48,2.4-11.78,6.29-13.24a18.4,18.4,0,0,1,3.24-.86,25.78,25.78,0,0,0,1.39,7.39l1-.08a24.52,24.52,0,0,1-1.42-7.45A18.3,18.3,0,0,1,81.22,24a22,22,0,0,1-3.28-2.33c.65-4,3-6.49,5.51-9A29.69,29.69,0,0,0,87.3,8.16l-.86-.55A28.41,28.41,0,0,1,82.71,12c-2.4,2.46-4.83,5-5.65,9a34.88,34.88,0,0,1-2.49-2.51c-3.59-4-8.21-1.07-14.8,5.06s-14.88,6.35-23-1.94C26.11,10.62,16.8,10.68,10.41,11.3c4.37,1.86,5.9,5.95,8.11,16.33,2.32,10.89,8.16,15.82,16.16,16.5-3.7.6-4.67,1.11-10.63,5.23-4.65,3.21-11.2,2.2-13.86,1.59,4.88,1.52,10.65,6.64,15.82,8.42a38.55,38.55,0,0,0,9.42,1.93v8.84L6.75,69.52v6.17l52.18-1.16,10.35,1.14v4.8a1.38,1.38,0,0,0,1.38,1.38H86.51a1.38,1.38,0,0,0,1.38-1.38V64.74A1.38,1.38,0,0,0,86.51,63.36ZM37.93,61.43c1.12,0,2.25,0,3.39-.09v8.93l-3.39-.07Z"/><path class="cls-1" d="M5.27,74.67a2.21,2.21,0,0,1-2,2.35H2a2.21,2.21,0,0,1-2-2.35V70.41a2.21,2.21,0,0,1,2-2.36H3.25a2.21,2.21,0,0,1,2,2.36Z"/></g></g></svg>