<svg xmlns="http://www.w3.org/2000/svg" viewBox="0 0 97.69 95.64"><defs><style>.cls-1{fill:#fff;}</style></defs><title>Asset 19</title><g id="Layer_2" data-name="Layer 2"><g id="レイアウト"><path class="cls-1" d="M97.69,42.7A25.66,25.66,0,0,0,73,17.09a25.63,25.63,0,0,0-48.33,0A25.61,25.61,0,0,0,9.89,62.9,25.62,25.62,0,0,0,34.51,95.64,25.46,25.46,0,0,0,49,91.15,25.61,25.61,0,0,0,87.84,62.87,25.58,25.58,0,0,0,97.69,42.7M69.31,25.63A20.48,20.48,0,0,1,51.86,45.85,20.33,20.33,0,0,1,69,22.48a20.38,20.38,0,0,1,.27,3.15M48.94,84.51a20.42,20.42,0,0,1-.19-29.16,20.42,20.42,0,0,1,.19,29.16m-20.29-62A20.27,20.27,0,0,1,45.83,45.85,20.27,20.27,0,0,1,28.65,22.48M43.91,51.86a20.4,20.4,0,0,1-27.69,9A20.47,20.47,0,0,1,34.51,49.55a20.26,20.26,0,0,1,9.4,2.31m9.81-.14a20.39,20.39,0,0,1,27.81,9.11,20.39,20.39,0,0,1-27.81-9.11M48.84,5.16A20.49,20.49,0,0,1,67.61,17.47a25.72,25.72,0,0,0-18.77,14.4,25.66,25.66,0,0,0-18.76-14.4A20.49,20.49,0,0,1,48.84,5.16M5.16,42.7A20.5,20.5,0,0,1,23.43,22.35a27.38,27.38,0,0,0-.21,3.28,25.57,25.57,0,0,0,8.37,18.93A25.69,25.69,0,0,0,11.94,57.87,20.38,20.38,0,0,1,5.16,42.7M14,70a19.84,19.84,0,0,1,.45-4.25A25.51,25.51,0,0,0,38,65.13a26.22,26.22,0,0,0-.44,4.72A25.56,25.56,0,0,0,44.8,87.67,20.42,20.42,0,0,1,14,70m69.62-.17A20.49,20.49,0,0,1,63.19,90.31a20.24,20.24,0,0,1-10.1-2.69,25.49,25.49,0,0,0,6.56-22.51,25.56,25.56,0,0,0,23.59.65,20.41,20.41,0,0,1,.42,4.09M66.26,44.41a25.6,25.6,0,0,0,8.21-18.78,27.38,27.38,0,0,0-.21-3.28A20.44,20.44,0,0,1,85.81,57.82,25.67,25.67,0,0,0,66.26,44.41"/></g></g></svg>