<svg xmlns="http://www.w3.org/2000/svg" viewBox="0 0 109.92 89.77"><defs><style>.cls-1{fill:#fff;}</style></defs><title>Asset 4</title><g id="Layer_2" data-name="Layer 2"><g id="レイアウト"><polygon class="cls-1" points="42.82 26.22 7.53 5.84 7.53 71.76 42.82 82.41 42.82 26.22"/><polygon class="cls-1" points="46.7 26.36 46.7 82.43 82.22 71.75 82.22 5.85 46.7 26.36"/><polygon class="cls-1" points="102.61 70.59 101.57 70.59 105.75 85.19 109.92 70.59 108.88 70.59 109.92 70.59 109.92 11.95 108.88 11.95 107.85 11.95 106.75 11.95 104.67 11.95 103.65 11.95 102.61 11.95 101.57 11.95 101.57 70.59 102.61 70.59"/><polygon class="cls-1" points="89.8 8.68 86.02 5.69 86.02 73.55 46.81 86.22 44.99 86.22 44.63 86.22 42.82 86.22 3.79 75.31 3.79 5.69 0 8.68 0 77.97 42.64 89.77 44.63 89.77 44.99 89.77 46.98 89.77 86.33 77.28 89.8 76.26 89.8 8.68"/><path class="cls-1" d="M109.92,4.18a4.18,4.18,0,1,0-8.35,0v4.5h8.35Z"/></g></g></svg>