<svg xmlns="http://www.w3.org/2000/svg" viewBox="0 0 282 282"><defs><style>.cls-1{isolation:isolate;}.cls-2{fill:#abcde2;}.cls-3{opacity:0.08;}.cls-4{opacity:0.7;}.cls-5{opacity:0.1;mix-blend-mode:multiply;}.cls-6,.cls-7{fill:#fff;}.cls-7{opacity:0.8;}</style></defs><title>Asset 4</title><g class="cls-1"><g id="Layer_2" data-name="Layer 2"><g id="レイヤー_1" data-name="レイヤー 1"><path class="cls-2" d="M282,141c0,9-12.77,16.66-14.46,25.18-1.73,8.78,7.11,20.72,3.76,28.79-3.41,8.22-18.13,10.39-23,17.7s-1.34,21.79-7.58,28-20.67,2.65-28,7.58-9.48,19.61-17.7,23c-8.07,3.35-20-5.49-28.79-3.75C157.66,269.23,150,282,141,282s-16.66-12.77-25.18-14.46C107,265.81,95.1,274.65,87,271.3c-8.22-3.41-10.39-18.13-17.7-23s-21.79-1.34-28-7.58-2.65-20.67-7.58-28-19.61-9.48-23-17.7c-3.35-8.07,5.49-20,3.75-28.79C12.77,157.66,0,150,0,141s12.77-16.66,14.46-25.18C16.19,107,7.35,95.1,10.7,87c3.41-8.22,18.13-10.39,23-17.7s1.34-21.79,7.58-28,20.67-2.65,28-7.58,9.48-19.61,17.7-23c8.07-3.35,20,5.49,28.79,3.75C124.34,12.77,132,0,141,0s16.66,12.77,25.18,14.46C175,16.19,186.9,7.35,195,10.7c8.22,3.41,10.39,18.13,17.7,23s21.79,1.34,28,7.58,2.65,20.67,7.58,28,19.61,9.48,23,17.7c3.35,8.07-5.49,20-3.75,28.79C269.23,124.34,282,132,282,141Z"/><g class="cls-3"><path d="M280.88,140.48c0-9-12.77-16.66-14.46-25.18-1.74-8.78,7.1-20.72,3.75-28.8s-18.13-10.39-23-17.69-1.33-21.8-7.57-28h0L40.17,240.18c6.24,6.24,20.67,2.64,28,7.57s9.47,19.62,17.69,23,20-5.49,28.8-3.75c8.52,1.69,16.16,14.46,25.18,14.46s16.65-12.77,25.17-14.46c8.78-1.74,20.72,7.1,28.8,3.75s10.39-18.13,17.69-23,21.8-1.33,28-7.57,2.64-20.67,7.57-28,19.62-9.48,23-17.7-5.49-20-3.75-28.79C268.11,157.14,280.88,149.49,280.88,140.48Z"/></g><g class="cls-4"><g class="cls-5"><path d="M213.34,177.13c-3.62-3.12-11.77-10.14-13.55-11.95s-18,2.35-18,2.35-5,2.89-2.71-1.37a39.73,39.73,0,0,0,1.35-4.75l7.61-4.08-6.79-2.47c.16-6.12-1.62-12.93-9.55-15.49-13.37-4.34-23.69,14-23.69,14s-16-18.82-17.83-22.43-11.64-2.55-19.92.75-22.7,6.22-25.53,5.7-5.17-.74-2.07,4.65,19.91,7.54,19.91,7.54-4.68,5.62-.29,9.26,10.36.8,10.36.8-.79,5.11,2.53,8.23,16.3-1.31,16.3-1.31S108,178.91,100.23,179.5c-9.9.8-19.31-4.07-19.31-4.07S74.39,174.11,78,180s15.9,6.69,15.9,6.69c-2.83,2.58-18.92,1.6-18.92,1.6a10,10,0,0,0,5.42,7.48c6.21,2.84,30.91-1,30.91-1s16.94,4,34,1.94,29.24-18.27,29.24-18.27,4.39,10,7.51,9.8,5.63-4.49,5.63-4.49,7,9.66,11.9,8.86,3.84-8.37,3.84-8.37,10.4,8.42,16.83,3C223.12,184.85,216.9,180.25,213.34,177.13Z"/></g><path class="cls-6" d="M210.34,174.13c-3.62-3.12-11.77-10.14-13.55-11.95s-18,2.35-18,2.35-5,2.89-2.71-1.37a39.73,39.73,0,0,0,1.35-4.75l7.61-4.08-6.79-2.47c.16-6.12-1.62-12.93-9.55-15.49-13.37-4.34-23.69,14-23.69,14s-16-18.82-17.83-22.43-11.64-2.55-19.92.75-22.7,6.22-25.53,5.7-5.17-.74-2.07,4.65,19.91,7.54,19.91,7.54-4.68,5.62-.29,9.26,10.36.8,10.36.8-.79,5.11,2.53,8.23,16.3-1.31,16.3-1.31S105,175.91,97.23,176.5c-9.9.8-19.31-4.07-19.31-4.07S71.39,171.11,75,177s15.9,6.69,15.9,6.69c-2.83,2.58-18.92,1.6-18.92,1.6a10,10,0,0,0,5.42,7.48c6.21,2.84,30.91-1,30.91-1s16.94,4,34,1.94,29.24-18.27,29.24-18.27,4.39,10,7.51,9.8,5.63-4.49,5.63-4.49,7,9.66,11.9,8.86,3.84-8.37,3.84-8.37,10.4,8.42,16.83,3C220.12,181.85,213.9,177.25,210.34,174.13Z"/></g><path class="cls-7" d="M141,254A113,113,0,1,1,254,141,113.13,113.13,0,0,1,141,254Zm0-220A107,107,0,1,0,248,141,107.12,107.12,0,0,0,141,34Z"/><g class="cls-4"><path class="cls-6" d="M92.05,91.67l6.12-6.41-1,8.83,8,3.91-8.81,1.61-1.21,8.89-4.26-7.84-8.79,1.46,6.11-6.41-4.31-8Z"/><path class="cls-6" d="M124.44,73.88l8.52-2.4-5.39,7.08L132.48,86l-8.4-3.09-5.57,7,.33-8.92-8.31-3.22,8.52-2.4.37-9.08Z"/><path class="cls-6" d="M161.34,75l8.56,2.26-8.23,3.36.46,8.91-5.67-6.93-8.38,3.23,4.82-7.52-5.53-7,8.56,2.26L160.85,66Z"/><path class="cls-6" d="M192.52,94.84l6.23,6.3-8.81-1.3-4.14,7.9-1.35-8.85L175.6,97.4l8-4-1.2-8.83,6.22,6.31,8.13-4.07Z"/></g></g></g></g></svg>