<svg xmlns="http://www.w3.org/2000/svg" viewBox="0 0 270 270"><defs><style>.cls-1{isolation:isolate;}.cls-2{fill:#de9b53;}.cls-3{opacity:0.08;}.cls-3,.cls-5{mix-blend-mode:multiply;}.cls-4{opacity:0.7;}.cls-5{opacity:0.1;}.cls-6,.cls-7{fill:#fff;}.cls-7{opacity:0.8;}</style></defs><title>Asset 1</title><g class="cls-1"><g id="Layer_2" data-name="Layer 2"><g id="レイヤー_1" data-name="レイヤー 1"><circle class="cls-2" cx="135" cy="135" r="135"/><g class="cls-3"><path d="M230.46,39.54,39.54,230.46A135,135,0,0,0,230.46,39.54Z"/></g><g class="cls-4"><g class="cls-5"><path d="M207.34,171.13c-3.62-3.12-11.77-10.14-13.55-11.95s-18,2.35-18,2.35-5,2.89-2.71-1.37a39.73,39.73,0,0,0,1.35-4.75l7.61-4.08-6.79-2.47c.16-6.12-1.62-12.93-9.55-15.49-13.37-4.34-23.69,14-23.69,14s-16-18.82-17.83-22.43-11.64-2.55-19.92.75-22.7,6.22-25.53,5.7-5.17-.74-2.07,4.65,19.91,7.54,19.91,7.54-4.68,5.62-.29,9.26,10.36.8,10.36.8-.79,5.11,2.53,8.23,16.3-1.31,16.3-1.31S102,172.91,94.23,173.5c-9.9.8-19.31-4.07-19.31-4.07S68.39,168.11,72,174s15.9,6.69,15.9,6.69c-2.83,2.58-18.92,1.6-18.92,1.6a10,10,0,0,0,5.42,7.48c6.21,2.84,30.91-1,30.91-1s16.94,4,34,1.94,29.24-18.27,29.24-18.27,4.39,10,7.51,9.8,5.63-4.49,5.63-4.49,7,9.66,11.9,8.86,3.84-8.37,3.84-8.37,10.4,8.42,16.83,3C217.12,178.85,210.9,174.25,207.34,171.13Z"/></g><path class="cls-6" d="M204.34,168.13c-3.62-3.12-11.77-10.14-13.55-11.95s-18,2.35-18,2.35-5,2.89-2.71-1.37a39.73,39.73,0,0,0,1.35-4.75l7.61-4.08-6.79-2.47c.16-6.12-1.62-12.93-9.55-15.49-13.37-4.34-23.69,14-23.69,14s-16-18.82-17.83-22.43-11.64-2.55-19.92.75-22.7,6.22-25.53,5.7-5.17-.74-2.07,4.65,19.91,7.54,19.91,7.54-4.68,5.62-.29,9.26,10.36.8,10.36.8-.79,5.11,2.53,8.23,16.3-1.31,16.3-1.31S99,169.91,91.23,170.5c-9.9.8-19.31-4.07-19.31-4.07S65.39,165.11,69,171s15.9,6.69,15.9,6.69c-2.83,2.58-18.92,1.6-18.92,1.6a10,10,0,0,0,5.42,7.48c6.21,2.84,30.91-1,30.91-1s16.94,4,34,1.94,29.24-18.27,29.24-18.27,4.39,10,7.51,9.8,5.63-4.49,5.63-4.49,7,9.66,11.9,8.86,3.84-8.37,3.84-8.37,10.4,8.42,16.83,3C214.12,175.85,207.9,171.25,204.34,168.13Z"/></g><path class="cls-7" d="M135,248A113,113,0,1,1,248,135,113.13,113.13,0,0,1,135,248Zm0-220A107,107,0,1,0,242,135,107.12,107.12,0,0,0,135,28Z"/><g class="cls-4"><path class="cls-6" d="M138.69,77.15h8.86l-7.11,5.35,2.72,8.5-7.25-5.26L128.63,91l2.74-8.5-7.13-5.35h8.86l2.81-8.64Z"/></g></g></g></g></svg>