<svg xmlns="http://www.w3.org/2000/svg" viewBox="0 0 282 282"><defs><style>.cls-1{isolation:isolate;}.cls-2{fill:#bbb;}.cls-3{opacity:0.08;}.cls-3,.cls-6{mix-blend-mode:multiply;}.cls-4,.cls-7{fill:#fff;}.cls-4{opacity:0.8;}.cls-5{opacity:0.7;}.cls-6{opacity:0.1;}</style></defs><title>Asset 2</title><g class="cls-1"><g id="Layer_2" data-name="Layer 2"><g id="レイヤー_1" data-name="レイヤー 1"><path class="cls-2" d="M282,141c0,18.3-15.19,33.46-21.79,49.38-6.84,16.5-7.07,37.89-19.51,50.32s-33.82,12.67-50.32,19.51C174.46,266.81,159.3,282,141,282s-33.46-15.19-49.38-21.79c-16.5-6.84-37.89-7.07-50.32-19.51s-12.67-33.82-19.51-50.32C15.19,174.46,0,159.3,0,141s15.19-33.46,21.79-49.38c6.84-16.5,7.07-37.89,19.51-50.32S75.12,28.63,91.62,21.79C107.54,15.19,122.7,0,141,0s33.46,15.19,49.38,21.79c16.5,6.84,37.89,7.07,50.32,19.51s12.67,33.82,19.51,50.32C266.81,107.54,282,122.7,282,141Z"/><g class="cls-3"><path d="M239.83,40.77h0L40.42,240.18c12.44,12.43,33.83,12.67,50.33,19.51,15.92,6.6,31.07,21.79,49.38,21.79s33.45-15.19,49.37-21.79c16.5-6.84,37.89-7.08,50.33-19.51s12.67-33.83,19.51-50.33c6.6-15.92,21.79-31.07,21.79-49.37S265.94,107,259.34,91.1C252.5,74.6,252.26,53.21,239.83,40.77Z"/></g><path class="cls-4" d="M141,254A113,113,0,1,1,254,141,113.13,113.13,0,0,1,141,254Zm0-220A107,107,0,1,0,248,141,107.12,107.12,0,0,0,141,34Z"/><g class="cls-5"><g class="cls-6"><path d="M213.34,177.13c-3.62-3.12-11.77-10.14-13.55-11.95s-18,2.35-18,2.35-5,2.89-2.71-1.37a39.73,39.73,0,0,0,1.35-4.75l7.61-4.08-6.79-2.47c.16-6.12-1.62-12.93-9.55-15.49-13.37-4.34-23.69,14-23.69,14s-16-18.82-17.83-22.43-11.64-2.55-19.92.75-22.7,6.22-25.53,5.7-5.17-.74-2.07,4.65,19.91,7.54,19.91,7.54-4.68,5.62-.29,9.26,10.36.8,10.36.8-.79,5.11,2.53,8.23,16.3-1.31,16.3-1.31S108,178.91,100.23,179.5c-9.9.8-19.31-4.07-19.31-4.07S74.39,174.11,78,180s15.9,6.69,15.9,6.69c-2.83,2.58-18.92,1.6-18.92,1.6a10,10,0,0,0,5.42,7.48c6.21,2.84,30.91-1,30.91-1s16.94,4,34,1.94,29.24-18.27,29.24-18.27,4.39,10,7.51,9.8,5.63-4.49,5.63-4.49,7,9.66,11.9,8.86,3.84-8.37,3.84-8.37,10.4,8.42,16.83,3C223.12,184.85,216.9,180.25,213.34,177.13Z"/></g><path class="cls-7" d="M210.34,174.13c-3.62-3.12-11.77-10.14-13.55-11.95s-18,2.35-18,2.35-5,2.89-2.71-1.37a39.73,39.73,0,0,0,1.35-4.75l7.61-4.08-6.79-2.47c.16-6.12-1.62-12.93-9.55-15.49-13.37-4.34-23.69,14-23.69,14s-16-18.82-17.83-22.43-11.64-2.55-19.92.75-22.7,6.22-25.53,5.7-5.17-.74-2.07,4.65,19.91,7.54,19.91,7.54-4.68,5.62-.29,9.26,10.36.8,10.36.8-.79,5.11,2.53,8.23,16.3-1.31,16.3-1.31S105,175.91,97.23,176.5c-9.9.8-19.31-4.07-19.31-4.07S71.39,171.11,75,177s15.9,6.69,15.9,6.69c-2.83,2.58-18.92,1.6-18.92,1.6a10,10,0,0,0,5.42,7.48c6.21,2.84,30.91-1,30.91-1s16.94,4,34,1.94,29.24-18.27,29.24-18.27,4.39,10,7.51,9.8,5.63-4.49,5.63-4.49,7,9.66,11.9,8.86,3.84-8.37,3.84-8.37,10.4,8.42,16.83,3C220.12,181.85,213.9,177.25,210.34,174.13Z"/></g><g class="cls-5"><path class="cls-7" d="M126.75,83.15h8.85l-7.1,5.35,2.71,8.5L124,91.74,116.69,97l2.73-8.5-7.12-5.35h8.85L124,74.51Z"/><path class="cls-7" d="M161.14,83.15H170l-7.1,5.35L165.6,97l-7.25-5.26L151.08,97l2.74-8.5-7.13-5.35h8.85l2.81-8.64Z"/></g></g></g></g></svg>