<svg xmlns="http://www.w3.org/2000/svg" viewBox="0 0 282 282.48"><defs><style>.cls-1{isolation:isolate;}.cls-2{fill:#e5c40d;}.cls-3{opacity:0.08;}.cls-3,.cls-5{mix-blend-mode:multiply;}.cls-4{opacity:0.7;}.cls-5{opacity:0.1;}.cls-6,.cls-7{fill:#fff;}.cls-7{opacity:0.8;}</style></defs><title>Asset 3</title><g class="cls-1"><g id="Layer_2" data-name="Layer 2"><g id="レイヤー_1" data-name="レイヤー 1"><path class="cls-2" d="M282,141c0,12.09-13.38,22.25-16.36,33.4-3.09,11.54,3.33,27-2.51,37.11-5.93,10.25-22.6,12.39-30.91,20.71s-10.46,25-20.71,30.91c-10.1,5.84-25.57-.58-37.11,2.51-11.15,3-21.31,16.36-33.4,16.36s-22.25-13.38-33.4-16.36c-11.54-3.09-27,3.33-37.11-2.51-10.25-5.93-12.39-22.6-20.71-30.91s-25-10.46-30.91-20.71c-5.84-10.1.58-25.57-2.51-37.11C13.38,163.25,0,153.09,0,141s13.38-22.25,16.36-33.4c3.09-11.54-3.33-27,2.51-37.11C24.8,60.24,41.47,58.1,49.78,49.78s10.46-25,20.71-30.91,25.57.58,37.11-2.51C118.75,13.38,128.91,0,141,0s22.25,13.38,33.4,16.36c11.54,3.09,27-3.33,37.11,2.51,10.25,5.93,12.39,22.6,20.71,30.91s25,10.46,30.91,20.71-.58,25.57,2.51,37.11C268.62,118.75,282,128.91,282,141Z"/><g class="cls-3"><path d="M281.75,141.48c0-12.09-13.38-22.26-16.36-33.41-3.09-11.53,3.33-27-2.51-37.11S240.28,58.57,232,50.26h0L49.53,232.69c8.32,8.32,10.46,25,20.71,30.91,10.09,5.85,25.57-.57,37.11,2.51,11.15,3,21.31,16.37,33.4,16.37s22.25-13.39,33.4-16.37c11.54-3.08,27,3.34,37.11-2.51,10.25-5.92,12.39-22.59,20.71-30.91s25-10.46,30.91-20.7-.58-25.58,2.51-37.11C268.37,163.73,281.75,153.56,281.75,141.48Z"/></g><g class="cls-4"><g class="cls-5"><path d="M213.34,181.13c-3.62-3.12-11.77-10.14-13.55-11.95s-18,2.35-18,2.35-5,2.89-2.71-1.37a39.73,39.73,0,0,0,1.35-4.75l7.61-4.08-6.79-2.47c.16-6.12-1.62-12.93-9.55-15.49-13.37-4.34-23.69,14-23.69,14s-16-18.82-17.83-22.43-11.64-2.55-19.92.75-22.7,6.22-25.53,5.7-5.17-.74-2.07,4.65,19.91,7.54,19.91,7.54-4.68,5.62-.29,9.26,10.36.8,10.36.8-.79,5.11,2.53,8.23,16.3-1.31,16.3-1.31S108,182.91,100.23,183.5c-9.9.8-19.31-4.07-19.31-4.07S74.39,178.11,78,184s15.9,6.69,15.9,6.69c-2.83,2.58-18.92,1.6-18.92,1.6a10,10,0,0,0,5.42,7.48c6.21,2.84,30.91-1,30.91-1s16.94,4,34,1.94,29.24-18.27,29.24-18.27,4.39,10,7.51,9.8,5.63-4.49,5.63-4.49,7,9.66,11.9,8.86,3.84-8.37,3.84-8.37,10.4,8.42,16.83,3C223.12,188.85,216.9,184.25,213.34,181.13Z"/></g><path class="cls-6" d="M210.34,178.13c-3.62-3.12-11.77-10.14-13.55-11.95s-18,2.35-18,2.35-5,2.89-2.71-1.37a39.73,39.73,0,0,0,1.35-4.75l7.61-4.08-6.79-2.47c.16-6.12-1.62-12.93-9.55-15.49-13.37-4.34-23.69,14-23.69,14s-16-18.82-17.83-22.43-11.64-2.55-19.92.75-22.7,6.22-25.53,5.7-5.17-.74-2.07,4.65,19.91,7.54,19.91,7.54-4.68,5.62-.29,9.26,10.36.8,10.36.8-.79,5.11,2.53,8.23,16.3-1.31,16.3-1.31S105,179.91,97.23,180.5c-9.9.8-19.31-4.07-19.31-4.07S71.39,175.11,75,181s15.9,6.69,15.9,6.69c-2.83,2.58-18.92,1.6-18.92,1.6a10,10,0,0,0,5.42,7.48c6.21,2.84,30.91-1,30.91-1s16.94,4,34,1.94,29.24-18.27,29.24-18.27,4.39,10,7.51,9.8,5.63-4.49,5.63-4.49,7,9.66,11.9,8.86,3.84-8.37,3.84-8.37,10.4,8.42,16.83,3C220.12,185.85,213.9,181.25,210.34,178.13Z"/></g><path class="cls-7" d="M141,254A113,113,0,1,1,254,141,113.13,113.13,0,0,1,141,254Zm0-220A107,107,0,1,0,248,141,107.12,107.12,0,0,0,141,34Z"/><g class="cls-4"><path class="cls-6" d="M106.59,81.68,114,76.79l-3,8.38,7,5.58L109,90.38l-3.15,8.4-2.42-8.6-8.9-.52,7.39-4.89L99.49,76Z"/><path class="cls-6" d="M143.64,72l8.86-.14-7,5.47,2.85,8.45L141,80.61,133.81,86l2.6-8.54-7.22-5.24,8.86-.14,2.66-8.69Z"/><path class="cls-6" d="M180.13,84.11l7.47,4.77-8.87.68-2.29,8.62-3.28-8.33-8.95.51,6.88-5.68L168,76.33l7.46,4.77,7-5.77Z"/></g></g></g></g></svg>