<svg xmlns="http://www.w3.org/2000/svg" viewBox="0 0 102.36 102.36"><defs><style>.cls-1{fill:#fff;}</style></defs><title>Asset 11</title><g id="Layer_2" data-name="Layer 2"><g id="レイアウト"><path class="cls-1" d="M69.21,56.86H33.14a.41.41,0,0,0-.39.43V68.13a.42.42,0,0,0,.39.44H69.21a.41.41,0,0,0,.4-.44V57.29a.41.41,0,0,0-.4-.43"/><path class="cls-1" d="M69.21,33.79H33.14a.42.42,0,0,0-.39.44V45.07a.42.42,0,0,0,.39.44H69.21a.42.42,0,0,0,.4-.44V34.23a.42.42,0,0,0-.4-.44"/><path class="cls-1" d="M68.71,17.4,51.39.09a.29.29,0,0,0-.42,0L33.66,17.4a.3.3,0,0,0,.21.51H68.5A.3.3,0,0,0,68.71,17.4Z"/><path class="cls-1" d="M85,68.71l17.32-17.32a.31.31,0,0,0,0-.42L85,33.66a.3.3,0,0,0-.51.21V68.5A.3.3,0,0,0,85,68.71Z"/><path class="cls-1" d="M33.66,85,51,102.28a.31.31,0,0,0,.42,0L68.71,85a.3.3,0,0,0-.21-.51H33.87A.3.3,0,0,0,33.66,85Z"/><path class="cls-1" d="M17.4,33.66.09,51a.29.29,0,0,0,0,.42L17.4,68.71a.3.3,0,0,0,.51-.21V33.87A.3.3,0,0,0,17.4,33.66Z"/></g></g></svg>