<svg xmlns="http://www.w3.org/2000/svg" viewBox="0 0 122.88 62.22"><defs><style>.cls-1{fill:#fff;}</style></defs><title>Asset 13</title><g id="Layer_2" data-name="Layer 2"><g id="レイアウト"><path class="cls-1" d="M112.3,6.45c-8.69-6.86-20.21-7-24.42-6l-.49.12C82.52,1.72,74.78,3.62,65.73,14.85l-.15.2-.11.13a.79.79,0,0,0-.16.44.83.83,0,0,0,.1.38l.21.34c1.14,1.9,2.57,4.35,3.78,6.6l0,.07a.77.77,0,0,0,.69.43.72.72,0,0,0,.53-.22,2,2,0,0,0,.17-.23c8-11.11,14.35-12.65,18.63-13.65L90,9.22c2.22-.53,10.65-.5,16.74,4.31,4.75,3.75,7.16,9.72,7.16,17.74,0,13.45-6.54,18.72-12,20.76-8.51,3.18-16.67-1.07-16.73-1.1l-.36-.18c-4.67-2-11.65-6.25-18.22-19.45C53.28,4.69,42.2,2.19,34.87.53L34.48.44c-3.34-.76-14.93-1.29-24,6C5.67,10.22,0,17.61,0,31.21,0,39.5,1.7,45,6.08,50.74,7,52.05,16.85,64.65,35.82,61A28.54,28.54,0,0,0,47.49,55.6l4.17,3.76a.68.68,0,0,0,1,0,.63.63,0,0,0,.17-.45v0l3-18.53v-.2a.7.7,0,0,0-.22-.5.64.64,0,0,0-.45-.16H55l-.2,0-17.74,5-.33.06a.63.63,0,0,0-.34.2.68.68,0,0,0,.05,1l.21.19,4,3.59a18.64,18.64,0,0,1-6.51,2.76c-13.73,2.61-20.5-6.37-20.76-6.73l-.09-.13C10.09,41.13,9,37.57,9,31.21c0-8,2.37-14,7-17.75C22,8.73,30.17,8.7,32.48,9.23l.4.09c6,1.36,14.24,3.22,25.58,26C64.35,47.14,71.73,54.87,81,59a32.85,32.85,0,0,0,14.13,3.27A28.09,28.09,0,0,0,105,60.48c5.38-2,17.89-8.87,17.89-29.21,0-13.6-5.75-21-10.58-24.82"/></g></g></svg>