<svg xmlns="http://www.w3.org/2000/svg" viewBox="0 0 60.01 60"><defs><style>.cls-1{fill:#58b331;}.cls-2{fill:#d7a600;}.cls-3{fill:#c60f28;}.cls-4{fill:#00973b;}.cls-5{fill:#427935;}.cls-6{fill:#fabd00;}.cls-7{fill:#e83819;}.cls-8{fill:#f5a200;}.cls-9{fill:#0075ba;}.cls-10{fill:#970b31;}.cls-11{fill:#00a6d9;}.cls-12{fill:#ed6a02;}.cls-13{fill:#e5001e;}.cls-14{fill:#dc007a;}.cls-15{fill:#003067;}.cls-16{fill:#d39200;}.cls-17{fill:#004c88;}</style></defs><title>Asset 1</title><g id="Layer_2" data-name="Layer 2"><g id="レイアウト"><path class="cls-1" d="M15.42,21.44A16.74,16.74,0,0,1,18.11,18L9.29,8.31a30.2,30.2,0,0,0-5.6,7.29Z"/><path class="cls-2" d="M37,14.61a16.62,16.62,0,0,1,3.69,2.32l8.85-9.66a30,30,0,0,0-7.84-4.89Z"/><path class="cls-3" d="M57.29,17.52,45.57,23.36a16.53,16.53,0,0,1,1.17,4.14l13-1.23a29.58,29.58,0,0,0-2.49-8.75"/><path class="cls-4" d="M44.73,21.67l11.72-5.85A30.27,30.27,0,0,0,51,8.55L42.13,18.2a17.38,17.38,0,0,1,2.6,3.47"/><path class="cls-5" d="M13.09,30c0-.26,0-.52,0-.78L.07,28C0,28.68,0,29.34,0,30a29.89,29.89,0,0,0,.89,7.26l12.59-3.61A17.59,17.59,0,0,1,13.09,30"/><path class="cls-6" d="M43.09,40.71a17.38,17.38,0,0,1-3.18,3l6.88,11.15a30.47,30.47,0,0,0,6.75-6.27Z"/><path class="cls-7" d="M46.92,30a17,17,0,0,1-.38,3.6l12.59,3.62A29.62,29.62,0,0,0,60,30c0-.61,0-1.23-.06-1.84l-13,1.23c0,.21,0,.41,0,.61"/><path class="cls-8" d="M17.14,41,6.71,48.89a30.5,30.5,0,0,0,6.81,6.16l6.89-11.13a16.75,16.75,0,0,1-3.27-3"/><path class="cls-9" d="M13.3,27.32a16.58,16.58,0,0,1,1.25-4.2L2.83,17.29A30,30,0,0,0,.24,26.15Z"/><path class="cls-10" d="M45.19,55.86,38.31,44.73a16.55,16.55,0,0,1-4,1.63l2.43,12.88a29.45,29.45,0,0,0,8.46-3.38"/><path class="cls-11" d="M46,35.42a17.11,17.11,0,0,1-1.84,3.77l10.46,7.88a29.82,29.82,0,0,0,4-8Z"/><path class="cls-12" d="M32.45,46.74a17.85,17.85,0,0,1-2.44.17,18.14,18.14,0,0,1-2-.11L25.61,59.68A30.38,30.38,0,0,0,30,60a30,30,0,0,0,4.86-.4Z"/><path class="cls-13" d="M31.09,13.11a16.56,16.56,0,0,1,4.18.81L40,1.69A29.81,29.81,0,0,0,31.09,0Z"/><path class="cls-14" d="M26.17,46.48A17,17,0,0,1,22,44.9L15.13,56.05a30,30,0,0,0,8.62,3.29Z"/><path class="cls-15" d="M24.92,13.86a16.77,16.77,0,0,1,4.28-.76V0a29.83,29.83,0,0,0-9,1.64Z"/><path class="cls-16" d="M16,39.46a17,17,0,0,1-2-4L1.41,39.07a29.82,29.82,0,0,0,4.15,8.31Z"/><path class="cls-17" d="M19.52,16.72a17.36,17.36,0,0,1,3.63-2.19L18.42,2.32A29.61,29.61,0,0,0,10.7,7.05Z"/></g></g></svg>