<svg xmlns="http://www.w3.org/2000/svg" viewBox="0 0 133.59 99.83"><defs><style>.cls-1{fill:#fff;}</style></defs><title>Asset 12</title><g id="Layer_2" data-name="Layer 2"><g id="レイアウト"><path class="cls-1" d="M.87,72.19h29.6a.73.73,0,0,0,.73-.73A.72.72,0,0,0,31,71l0,0L16.24,51.88l-.14-.16a.76.76,0,0,0-.54-.23.75.75,0,0,0-.48.18l-.08.11-.14.15L.49,70.78l-.22.27a.74.74,0,0,0,.6,1.14Z"/><path class="cls-1" d="M30.38,74.87H.73A.73.73,0,0,0,0,75.6V98.81a.72.72,0,0,0,.73.72h9.54V84.93a.72.72,0,0,1,.73-.72h8.86a.72.72,0,0,1,.72.72v14.6h9.8a.73.73,0,0,0,.73-.72V75.6A.73.73,0,0,0,30.38,74.87Z"/><path class="cls-1" d="M132.87,68.8H103.52a.7.7,0,0,0-.71.69V99.13a.7.7,0,0,0,.71.7h29.35a.71.71,0,0,0,.72-.7V69.49a.7.7,0,0,0-.72-.69M116.82,88.15a.71.71,0,0,1-.72.7h-8.77a.71.71,0,0,1-.72-.7V82.82a.71.71,0,0,1,.72-.7h8.77a.71.71,0,0,1,.72.7Zm0-9.85a.71.71,0,0,1-.72.7h-8.77a.71.71,0,0,1-.72-.7V73a.7.7,0,0,1,.72-.69h8.77a.7.7,0,0,1,.72.69Zm13.4,9.85a.71.71,0,0,1-.72.7h-8.77a.71.71,0,0,1-.72-.7V82.82a.71.71,0,0,1,.72-.7h8.77a.71.71,0,0,1,.72.7Zm0-9.85a.71.71,0,0,1-.72.7h-8.77a.71.71,0,0,1-.72-.7V73a.7.7,0,0,1,.72-.69h8.77a.7.7,0,0,1,.72.69Z"/><path class="cls-1" d="M64.64,0H35.92a.7.7,0,0,0-.7.7V98.87a.7.7,0,0,0,.7.7H64.64a.7.7,0,0,0,.71-.7V.7a.7.7,0,0,0-.71-.7M47.56,88.39a.38.38,0,0,1-.38.38H40.6a.38.38,0,0,1-.37-.38V81.06a.37.37,0,0,1,.37-.37h6.58a.37.37,0,0,1,.38.37Zm0-16.83a.37.37,0,0,1-.38.37H40.6a.37.37,0,0,1-.37-.37V64.23a.38.38,0,0,1,.37-.38h6.58a.38.38,0,0,1,.38.38Zm0-16.83a.38.38,0,0,1-.38.37H40.6a.38.38,0,0,1-.37-.37V47.4A.38.38,0,0,1,40.6,47h6.58a.38.38,0,0,1,.38.38Zm0-16.84a.38.38,0,0,1-.38.38H40.6a.38.38,0,0,1-.37-.38V30.56a.37.37,0,0,1,.37-.37h6.58a.37.37,0,0,1,.38.37Zm0-16.83a.38.38,0,0,1-.38.38H40.6a.38.38,0,0,1-.37-.38V13.73a.37.37,0,0,1,.37-.37h6.58a.37.37,0,0,1,.38.37Zm12.9,67.33a.38.38,0,0,1-.38.38H53.5a.38.38,0,0,1-.38-.38V81.06a.37.37,0,0,1,.38-.37h6.58a.37.37,0,0,1,.38.37Zm0-16.83a.37.37,0,0,1-.38.37H53.5a.37.37,0,0,1-.38-.37V64.23a.38.38,0,0,1,.38-.38h6.58a.38.38,0,0,1,.38.38Zm0-16.83a.38.38,0,0,1-.38.37H53.5a.38.38,0,0,1-.38-.37V47.4A.38.38,0,0,1,53.5,47h6.58a.38.38,0,0,1,.38.38Zm0-16.84a.38.38,0,0,1-.38.38H53.5a.38.38,0,0,1-.38-.38V30.56a.37.37,0,0,1,.38-.37h6.58a.37.37,0,0,1,.38.37Zm0-16.83a.38.38,0,0,1-.38.38H53.5a.38.38,0,0,1-.38-.38V13.73a.37.37,0,0,1,.38-.37h6.58a.37.37,0,0,1,.38.37Z"/><rect class="cls-1" x="102.84" y="59.32" width="30.72" height="7.09" rx="0.59"/><path class="cls-1" d="M99.34,18.54a.75.75,0,0,0-.72-.55.8.8,0,0,0-.41.13l-.06,0-.24.31L69.68,54.28l-.13.17a.82.82,0,0,0-.24.56V99a.7.7,0,0,0,.7.7h28.7a.7.7,0,0,0,.7-.7V18.83A.73.73,0,0,0,99.34,18.54ZM87.45,38l.21-.26c1.93-2.48,5.18-6.48,6.77-8.43l.21-.25a.83.83,0,0,1,.63-.3.8.8,0,0,1,.78.66v9.06a.81.81,0,0,1-.78.81H88.08a.81.81,0,0,1-.78-.81A.78.78,0,0,1,87.45,38ZM83,88.14a.7.7,0,0,1-.7.7H73.72a.7.7,0,0,1-.7-.7V82.78a.7.7,0,0,1,.7-.7h8.57a.71.71,0,0,1,.7.7Zm0-9.9a.7.7,0,0,1-.7.7H73.72a.7.7,0,0,1-.7-.7V72.88a.7.7,0,0,1,.7-.7h8.57a.7.7,0,0,1,.7.7Zm0-9.9a.71.71,0,0,1-.7.7H73.72a.7.7,0,0,1-.7-.7V63a.7.7,0,0,1,.7-.7h8.57a.7.7,0,0,1,.7.7Zm0-21.7V58.45a.71.71,0,0,1-.7.7H73.75a.71.71,0,0,1-.71-.7V57a1.1,1.1,0,0,1,.06-.26.2.2,0,0,1,0-.08l.06-.1a1,1,0,0,0,.08-.11c1.1-1.57,6-7.65,8.11-10.19L81.6,46a.8.8,0,0,1,.63-.29.79.79,0,0,1,.78.65Zm13.06,41.5a.7.7,0,0,1-.7.7H86.81a.7.7,0,0,1-.7-.7V82.78a.7.7,0,0,1,.7-.7h8.56a.7.7,0,0,1,.7.7Zm0-9.9a.7.7,0,0,1-.7.7H86.81a.7.7,0,0,1-.7-.7V72.88a.7.7,0,0,1,.7-.7h8.56a.7.7,0,0,1,.7.7Zm0-9.9a.7.7,0,0,1-.7.7H86.81a.7.7,0,0,1-.7-.7V63a.7.7,0,0,1,.7-.7h8.56a.7.7,0,0,1,.7.7Zm0-9.9a.7.7,0,0,1-.7.7H86.81a.7.7,0,0,1-.7-.7V53.08a.7.7,0,0,1,.7-.71h8.56a.7.7,0,0,1,.7.71Zm0-9.91a.7.7,0,0,1-.7.7H86.81a.7.7,0,0,1-.7-.7V43.17a.7.7,0,0,1,.7-.7h8.56a.7.7,0,0,1,.7.7Z"/></g></g></svg>