<svg xmlns="http://www.w3.org/2000/svg" viewBox="0 0 106.07 90.4"><defs><style>.cls-1{fill:#fff;}</style></defs><title>Asset 2</title><g id="Layer_2" data-name="Layer 2"><g id="レイアウト"><path class="cls-1" d="M35.94,86.25V89s0,0,0,.06,0,0,0,.07a1.3,1.3,0,0,0,1.28,1.24H69.79a1.31,1.31,0,0,0,1.28-1.3h0V85.94c18.27-6,32-20.8,35-38.84,0,0,0-.08,0-.11a.55.55,0,0,0,0-.18,1.3,1.3,0,0,0-1.31-1.31H1.32A1.31,1.31,0,0,0,0,46.81l.07.59C3.23,65.62,17.29,80.51,35.94,86.25"/><path class="cls-1" d="M71,1.35c-.43.6-10.42,15,.22,26.63,4.88,5.34,4.46,10.05,3.06,13.23h6.83c1.39-4.7.81-10.59-4.73-16.65-7.84-8.57.1-20.16.22-20.34A2.55,2.55,0,0,0,75.53.4a3.61,3.61,0,0,0-4.49,1"/><path class="cls-1" d="M53.75,41.21h6.83c1.38-4.7.8-10.59-4.74-16.65C48,16,55.93,4.41,56.06,4.22A2.56,2.56,0,0,0,55,.4a3.61,3.61,0,0,0-4.49,1C50,2,40,16.34,50.68,28c4.88,5.34,4.46,10.05,3.07,13.23"/><path class="cls-1" d="M29.88,1.35c-.44.6-10.43,15,.21,26.63C35,33.32,34.56,38,33.17,41.21H40c1.38-4.7.81-10.59-4.73-16.65-7.85-8.57.09-20.16.22-20.34A2.56,2.56,0,0,0,34.36.4a3.6,3.6,0,0,0-4.48,1"/></g></g></svg>