<?xml version="1.0" encoding="UTF-8"?>
<svg viewBox="0 0 70 70" version="1.1" xmlns="http://www.w3.org/2000/svg" xmlns:xlink="http://www.w3.org/1999/xlink">
    <title>Artboard</title>
    <defs>
        <polygon id="path-1" points="0.5362 0.1531 14.012 0.1531 14.012 9.2121 0.5362 9.2121"></polygon>
        <polygon id="path-3" points="0.6107 0.7363 9.8707 0.7363 9.8707 14 0.6107 14"></polygon>
        <polygon id="path-5" points="0.1853 0 9.1953 0 9.1953 13.8579 0.1853 13.8579"></polygon>
    </defs>
    <g id="Artboard" stroke="none" stroke-width="1" fill="none" fill-rule="evenodd">
        <g id="Group-38" transform="translate(4.000000, 5.000000)">
            <path d="M15.4174,21.4399 C16.1634,20.1719 17.0684,19.0089 18.1064,17.9809 L9.2874,8.3099 C7.0684,10.4299 5.1764,12.8879 3.6884,15.5979 L15.4174,21.4399 Z" id="Fill-1" fill="#58B331"></path>
            <path d="M37.0365,14.6084 C38.3715,15.2204 39.6135,16.0004 40.7345,16.9254 L49.5785,7.2694 C47.2495,5.2604 44.6075,3.6034 41.7405,2.3794 L37.0365,14.6084 Z" id="Fill-3" fill="#D7A700"></path>
            <path d="M57.2904,17.5161 L45.5684,23.3591 C46.1284,24.6651 46.5254,26.0531 46.7414,27.5011 L59.7814,26.2691 C59.3964,23.1831 58.5424,20.2401 57.2904,17.5161" id="Fill-5" fill="#C60F28"></path>
            <path d="M44.7279,21.6655 L56.4479,15.8225 C54.9959,13.1255 53.1449,10.6745 50.9709,8.5505 L42.1269,18.2045 C43.1339,19.2395 44.0099,20.4015 44.7279,21.6655" id="Fill-7" fill="#00973B"></path>
            <path d="M13.0873,29.9951 C13.0873,29.7311 13.0963,29.4671 13.1083,29.2051 L0.0663,28.0371 C0.0243,28.6841 0.0003,29.3371 0.0003,29.9951 C0.0003,32.4961 0.3103,34.9261 0.8883,37.2491 L13.4833,33.6351 C13.2263,32.4621 13.0873,31.2451 13.0873,29.9951" id="Fill-9" fill="#427935"></path>
            <path d="M43.0863,40.7144 C42.1583,41.8424 41.0893,42.8484 39.9053,43.7064 L46.7913,54.8554 C49.3473,53.1244 51.6223,51.0084 53.5353,48.5934 L43.0863,40.7144 Z" id="Fill-11" fill="#FABD00"></path>
            <g id="Group-15" transform="translate(46.000000, 28.000000)">
                <mask id="mask-2" fill="white">
                    <use xlink:href="#path-1"></use>
                </mask>
                <g id="Clip-14"></g>
                <path d="M0.9242,1.9951 C0.9242,3.2291 0.7912,4.4331 0.5362,5.5931 L13.1312,9.2121 C13.7052,6.8991 14.0122,4.4821 14.0122,1.9951 C14.0122,1.3771 13.9912,0.7641 13.9532,0.1531 L0.9122,1.3851 C0.9202,1.5891 0.9242,1.7911 0.9242,1.9951" id="Fill-13" fill="#E83819" mask="url(#mask-2)"></path>
            </g>
            <path d="M17.1371,40.9639 L6.7131,48.8859 C8.6521,51.2739 10.9481,53.3549 13.5201,55.0529 L20.4061,43.9159 C19.1931,43.0769 18.0931,42.0829 17.1371,40.9639" id="Fill-16" fill="#F5A200"></path>
            <path d="M13.2992,27.3237 C13.5322,25.8507 13.9592,24.4417 14.5482,23.1227 L2.8302,17.2847 C1.5362,20.0397 0.6492,23.0227 0.2442,26.1537 L13.2992,27.3237 Z" id="Fill-18" fill="#0076BA"></path>
            <path d="M45.1898,55.8643 L38.3138,44.7293 C37.0638,45.4353 35.7188,45.9883 34.2998,46.3603 L36.7278,59.2403 C39.7468,58.5473 42.5928,57.3953 45.1898,55.8643" id="Fill-20" fill="#970B31"></path>
            <path d="M46.0346,35.417 C45.5786,36.756 44.9626,38.021 44.2046,39.187 L54.6616,47.075 C56.3596,44.633 57.7026,41.929 58.6196,39.034 L46.0346,35.417 Z" id="Fill-22" fill="#00A6D9"></path>
            <g id="Group-26" transform="translate(25.000000, 46.000000)">
                <mask id="mask-4" fill="white">
                    <use xlink:href="#path-3"></use>
                </mask>
                <g id="Clip-25"></g>
                <path d="M7.4457,0.7363 C6.6497,0.8513 5.8357,0.9143 5.0067,0.9143 C4.3397,0.9143 3.6817,0.8723 3.0367,0.7973 L0.6107,13.6783 C2.0477,13.8883 3.5127,14.0003 5.0067,14.0003 C6.6617,14.0003 8.2877,13.8633 9.8707,13.6053 L7.4457,0.7363 Z" id="Fill-24" fill="#ED6A02" mask="url(#mask-4)"></path>
            </g>
            <path d="M31.0873,13.1099 C32.5403,13.2029 33.9443,13.4799 35.2743,13.9189 L39.9783,1.6929 C37.1793,0.7049 34.1933,0.1189 31.0873,0.0099 L31.0873,13.1099 Z" id="Fill-27" fill="#E5001E"></path>
            <path d="M26.1723,46.4751 C24.7053,46.1331 23.3123,45.6001 22.0193,44.9041 L15.1303,56.0471 C17.7793,57.5641 20.6783,58.6871 23.7493,59.3421 L26.1723,46.4751 Z" id="Fill-29" fill="#DC007A"></path>
            <g id="Group-33" transform="translate(20.000000, 0.000000)">
                <mask id="mask-6" fill="white">
                    <use xlink:href="#path-5"></use>
                </mask>
                <g id="Clip-32"></g>
                <path d="M4.9213,13.8579 C6.2793,13.4289 7.7123,13.1669 9.1953,13.0979 L9.1953,-0.0001 C6.0463,0.0839 3.0223,0.6569 0.1853,1.6409 L4.9213,13.8579 Z" id="Fill-31" fill="#003067" mask="url(#mask-6)"></path>
            </g>
            <path d="M15.9896,39.4585 C15.1586,38.2305 14.4806,36.8865 13.9946,35.4575 L1.4066,39.0695 C2.3596,42.0725 3.7726,44.8695 5.5636,47.3815 L15.9896,39.4585 Z" id="Fill-34" fill="#D39200"></path>
            <path d="M19.5238,16.7246 C20.6288,15.8486 21.8468,15.1096 23.1518,14.5296 L18.4188,2.3186 C15.5988,3.5016 13.0018,5.1046 10.6988,7.0466 L19.5238,16.7246 Z" id="Fill-36" fill="#004C88"></path>
        </g>
    </g>
</svg>