<svg xmlns="http://www.w3.org/2000/svg" viewBox="0 0 153.5 162.45"><defs><style>.cls-1,.cls-2{fill:#fff;}.cls-1{stroke:#fff;stroke-miterlimit:10;stroke-width:4px;}.cls-3{fill:#80C62D;}</style></defs><title>Asset 4</title><g id="Layer_2" data-name="Layer 2"><g id="レイアウト"><circle class="cls-1" cx="117.52" cy="35.97" r="33.97"/><path class="cls-2" d="M13.42,105.93l1.73-14.31A5,5,0,0,1,18,87.55l8.54-3.63-3.9,17.85,22.67,26.17a23.47,23.47,0,0,1,5.49,13.61l.73,13.08c.35,4.76,4.06,8.27,8.23,7.77h0c3.8-.46,6.69-4.12,6.69-8.49L66.39,136a28.78,28.78,0,0,0-7.7-19.91l-11.1-12.58,6-35.09c.59-3.49-1.18-6.94-4.14-8L39.37,56.6a11.86,11.86,0,0,0-11.6,1.91L9,73.23A19.13,19.13,0,0,0,2,86.21l-2,17.69c-.48,4.2,2.12,8,5.8,8.6h0C9.53,113.05,12.91,110.12,13.42,105.93Z"/><path class="cls-2" d="M14.28,161.08h0c3.93,2.61,9,.58,10.6-4.26l9.46-31.49-14-15.17L10.92,151.4A9,9,0,0,0,14.28,161.08Z"/><path class="cls-2" d="M48.28,26.66A12.56,12.56,0,0,0,35.75,39.35,12.89,12.89,0,0,0,48.4,52,12.78,12.78,0,0,0,60.9,39.23,12.5,12.5,0,0,0,48.28,26.66Z"/><path class="cls-2" d="M56.32,95.34l2.62-15.91L75,90.6a7.33,7.33,0,0,1,3,7.61h0c-.83,4.29-4.91,6.63-8.42,4.84Z"/><path class="cls-3" d="M105.7,16.29a75.7,75.7,0,0,1,12.35-.85c5.62,0,9.67,1.09,12.38,3.27a11.68,11.68,0,0,1,4.29,9.35c0,4-1.28,7.34-3.69,9.58-3.13,2.94-7.79,4.29-13.14,4.29a22.35,22.35,0,0,1-3.12-.2V56.21H105.7Zm9.07,18.35a14.17,14.17,0,0,0,3,.24c4.85,0,7.85-2.46,7.85-6.56,0-3.72-2.54-5.94-7.16-5.94a17.52,17.52,0,0,0-3.73.31Z"/></g></g></svg>