<svg xmlns="http://www.w3.org/2000/svg" viewBox="0 0 393.44 380"><defs><style>.cls-1{fill:#ec6c1f;}.cls-2{fill:#0091d7;}</style></defs><title>Asset 1</title><g id="Layer_2" data-name="Layer 2"><g id="レイアウト"><path class="cls-1" d="M375.26,194c0,68.71-81,124.41-178.1,124.41S19.07,262.74,19.07,194c0-21.83-4.69-15-4.69,11.38,0,73.38,81.82,132.86,182.78,132.86S380,278.79,380,205.41C380,179.08,375.26,172.21,375.26,194Z"/><path class="cls-1" d="M108.18,202.19a7.28,7.28,0,0,0-10.13-1.63,7.89,7.89,0,0,0-1.13,1,7.23,7.23,0,0,0-8.83-.26A7.06,7.06,0,0,0,86,203.71a5.36,5.36,0,0,0-.38-.59,7.25,7.25,0,0,0-13,2.89,7.25,7.25,0,0,0-11.36,9,6.25,6.25,0,0,0,.4.5,7.25,7.25,0,0,0-1,14.43L29.1,242.29l10.42,15.79L67,236.42a7.43,7.43,0,0,0,2.57.22,7.24,7.24,0,0,0,10.88,8.77,7.09,7.09,0,0,0,2.26-2.66,7.25,7.25,0,0,0,9.58-8.65,7,7,0,0,0,1.32-.76A7.25,7.25,0,0,0,96.12,225,7.23,7.23,0,0,0,102,213.69a7.17,7.17,0,0,0,4.58-1.36A7.26,7.26,0,0,0,108.18,202.19ZM67.11,218.07l0-.06h0Z"/><path class="cls-1" d="M379,195.33l-40.6-10.9-12.16,34.3,13.61,4.84-6.67,18.79,28.13,15.58,7.21-18.63,2.49-4.86Zm-22.86-.7,15.31,5.43-3,8.46-15.3-5.43Zm-4.06,11.48,15.31,5.42-3,8.47-15.32-5.43Z"/><path class="cls-1" d="M325.25,223.74l-23.18,5.6,15.31,63.42,23.18-5.6Zm5.18,37-6,1.45-1.45-6,6-1.45Zm-5.53-22.95,1.45,6-6,1.45-1.46-6ZM307.8,233l6-1.46,1.46,6-6,1.46Zm4.1,16.93,6-1.45,1.45,6-6,1.45Zm5.55,22.93-1.46-6,6-1.45,1.46,6Z"/><path class="cls-1" d="M291.93,221.28l-28.21,8.19,22.4,77.2,28.2-8.18Zm7.18,45.65-7.33,2.12-2.11-7.33,7.32-2.13Zm-3-10.31-7.32,2.11-2.13-7.33,7.33-2.13Zm-3-10.32-7.32,2.11-2.12-7.32L291,239ZM288,228.67l2.12,7.31-7.33,2.14-2.13-7.33ZM269.7,234l7.33-2.13,2.13,7.34-7.34,2.11Zm3,10.32,7.33-2.15,2.11,7.34-7.32,2.13Zm3,10.3,7.32-2.12,2.12,7.32-7.31,2.12Zm3,10.31,7.31-2.13,2.15,7.33-7.34,2.13Zm5.11,17.62-2.12-7.32L289,273.1l2.13,7.31Zm8.87-10.5,7.32-2.14,2.11,7.34-7.31,2.11Z"/><path class="cls-1" d="M14.48,349.78c0,.29-.28.49-.7.55,0,.4-.08.92-.11,1.49.37,4.65,2.05,16,11.3,20.77a10.21,10.21,0,0,0-2.38,2.93c-5.92-3.21-8.89-9.15-10.38-14.49-1.38,5.08-4.09,10.7-9.59,14.49A11.13,11.13,0,0,0,0,372.79c10.44-6.42,10.08-19.59,10.26-23.41Z"/><path class="cls-1" d="M46.78,360.14a.77.77,0,0,1-.26,0,1,1,0,0,1-.59-.17c-7.78,2.32-13.57,5.42-13.55,8.49,0,2.15,2,3,5.61,3a55,55,0,0,0,9.18-.77l.31,3.67a85.46,85.46,0,0,1-9.41.55c-5.07,0-9-1.38-9-6.31,0-3,2.43-5.54,6.26-7.84-1-2.07-1.24-5.25-1.22-11.45l4.6.4c0,.44-.29.66-.85.75,0,.83,0,1.61,0,2.32a23.6,23.6,0,0,0,.58,6.35c2.21-1.1,4.69-2.13,7.32-3.13Z"/><path class="cls-1" d="M54.68,352.74c1.57.11,4.06.11,6,.11.84,0,1.69,0,2.46-.06,0-1.23-.05-2.64-.05-3.5l4,.2c0,.32-.26.52-.67.61v2.58a48.44,48.44,0,0,0,7.83-1l.31,3.33a61.54,61.54,0,0,1-8.14.86c0,1.35,0,2.67,0,4a47.76,47.76,0,0,0,6.51-1l.26,3.18a43.78,43.78,0,0,1-6.72.83c0,1.41.11,2.7.16,3.73a24.43,24.43,0,0,1,7,4.05l-2,3.13a21.48,21.48,0,0,0-4.9-3.7V371c-.06,2.35-1.79,4-5.41,4-3.44,0-5.76-1.86-5.76-4.59,0-2.9,2.76-4.62,5.89-4.62a9.73,9.73,0,0,1,2,.17c0-.86-.05-1.84-.08-2.87-.7,0-1.42,0-2,0-3.51-.06-5.71-.63-5.68-2.76,0-1.2.8-2.29,2.69-3.55l2.2,1.26c-.94.46-1.58,1-1.58,1.41s.33.68,2.92.68c.44,0,.9,0,1.4,0L63.21,356c-.8,0-1.7,0-2.54,0-1.78,0-4.39-.06-6-.06Zm8.92,16.07a8.63,8.63,0,0,0-2.3-.4c-1.61,0-2.82.74-2.82,1.86S59.74,372,61.42,372s2.2-.72,2.2-2.1Z"/><path class="cls-1" d="M99,355.86a53.33,53.33,0,0,1-10.21,1.53,30.34,30.34,0,0,1-1,5.51,11.56,11.56,0,0,1,6.44-2.36c3.56,0,6.2,2,6.2,6.4,0,5.91-4.94,8-13.78,8.24a18.13,18.13,0,0,0-1-3.27c7.32-.2,11.4-1.49,11.4-4.88,0-2.07-1.14-3.25-3.43-3.25a8.84,8.84,0,0,0-7.06,4.08l-3.16-1.52c.78-.95,1.74-4.5,2.08-8.9H80v-3.5c1.2.06,4,.06,5.82.06.1-1.49.13-3.24.1-4.85l4.19.4a.77.77,0,0,1-.77.69c-.06,1.24-.13,2.55-.21,3.67a44.2,44.2,0,0,0,9.36-1.66Z"/><path class="cls-1" d="M128.43,362.32a.51.51,0,0,1-.2.06.65.65,0,0,1-.37-.14c-1.93.63-4.49,1.54-6.41,2.35.06.57.06,1.23.06,1.92s0,1.44-.06,2.27l-3.25.26c.07-1.06.13-2.24.1-3.07-2,1.11-3.49,2.58-3.49,3.67,0,1.26,1.43,1.78,4.34,1.78a52,52,0,0,0,6.41-.32l.06,3.33a62.33,62.33,0,0,1-6.49.2c-5,0-7.47-1.23-7.47-4.79,0-2.29,2.69-4.91,6.33-7-.08-.83-.46-1.61-1.24-1.61-1.7,0-3.51,1-5.63,3.65-.62.8-1.58,1.92-2.69,3.12l-2.31-2.47a30.37,30.37,0,0,0,3.16-3.32,18.39,18.39,0,0,0,2.9-6l-1,0c-.57,0-3.36,0-4,0V353c1.44.09,3.31.09,4.44.09l1.37,0c.24-1.17.39-2.32.55-3.79l4,.43a.7.7,0,0,1-.65.55c-.13.92-.33,1.78-.54,2.67a26.45,26.45,0,0,0,7.86-1.58l.52,3.39a36.14,36.14,0,0,1-9.23,1.4,18.7,18.7,0,0,1-1.27,3.36h0a5.68,5.68,0,0,1,3.54-1.41c1.5,0,2.81,1.18,3.21,3.36,2-.95,4.42-1.92,6.28-2.76Z"/><path class="cls-1" d="M133.05,362v-3.36h20.42V362h-7.83l.51.17a.54.54,0,0,1-.59.37c-.67,4.54-2.66,9.64-7.75,12.51a21.63,21.63,0,0,0-2.54-2.38c4.94-2.81,6.36-6.45,6.83-10.67Zm17.86-8a14.64,14.64,0,0,0-1.29-2.26v2.61H135.43v-3.36h13.65a9.52,9.52,0,0,0-.94-1.12l1.48-1.2a21.69,21.69,0,0,1,2.84,4.07Zm3.62-.77a22.24,22.24,0,0,0-2.74-4.05l1.4-1.17a24.87,24.87,0,0,1,2.87,4Z"/><path class="cls-1" d="M180.19,359.31H175.1v1.09c0,6-1.83,11.22-8.14,14.55a18.67,18.67,0,0,0-2.39-2.5c6-3,7.22-7.32,7.22-12v-1.12h-6.33v6.31h-3.23v-6.31h-4.48v-3.45h4.48V350l4,.29a.84.84,0,0,1-.77.72v4.9h6.33v-6.22l4.06.26c0,.29-.26.54-.75.65v5.31h5.09Zm-3.64-8.69a17.37,17.37,0,0,1,2.63,3.44l-1.37,1.23a19.8,19.8,0,0,0-2.58-3.56Zm2.63-2.44a18,18,0,0,1,2.71,3.5l-1.31,1.17a19.66,19.66,0,0,0-2.69-3.53Z"/><path class="cls-1" d="M205.28,352.25a.83.83,0,0,1-.83.31,69.38,69.38,0,0,1-7,6.52c.29.09.57.23.83.32a.84.84,0,0,1-.75.54v15h-3.44V361.43a74.06,74.06,0,0,1-8.58,5.37,13.27,13.27,0,0,0-2-2.79c6.74-3.32,14.5-9.29,18.45-14.4Z"/><path class="cls-1" d="M211.66,351.48a32.06,32.06,0,0,1,7.57,3.78l-1.71,3.27a36.83,36.83,0,0,0-7.39-3.93Zm-.89,19.42c8.72-3,14.71-8.61,17.71-16.5a20,20,0,0,0,3,2.13,31.19,31.19,0,0,1-17.94,17.3,1,1,0,0,1-.44.74Z"/><path class="cls-1" d="M234.78,353.34c1.63-.06,3.9-.08,5.92-.14,1.21-.06,3.05-.12,4.91-.18,0-.43-.05-2.75-.15-4l4.26.23a.86.86,0,0,1-.69.63c0,.69,0,1.92,0,3.1,3.39-.12,6.77-.2,8.16-.23v3.38c-.74,0-1.73,0-2.84,0-1.55,0-3.38,0-5.3.09l.16,5.11a11.47,11.47,0,0,1,.38,3.27,10.84,10.84,0,0,1-.54,3.79,12.45,12.45,0,0,1-7.31,7.34,17.17,17.17,0,0,0-2.41-2.84c2.8-1.06,4.92-2.55,5.82-4.33h0a2.17,2.17,0,0,1-1.42.55,4.91,4.91,0,0,1-4.61-5.23,5.27,5.27,0,0,1,5-5.56,3.64,3.64,0,0,1,1.68.43c0-.29,0-1.87-.07-2.44-1.92,0-10.45.37-10.86.4Zm11.45,10.39c0-.63,0-2.64-2-2.64-1.22,0-2.2,1-2.23,2.69a2.31,2.31,0,0,0,2.13,2.47C245.46,366.25,246.23,365.16,246.23,363.73Z"/><path class="cls-1" d="M270.47,360.71a12.61,12.61,0,0,1,4.94-1.06c3.93,0,6.64,2.67,6.64,7.18,0,5.13-4,8.12-9.67,8.12-3.33,0-5.69-1.69-5.69-4.6a4.45,4.45,0,0,1,4.55-4.21,5.37,5.37,0,0,1,5.25,4.53,4.17,4.17,0,0,0,2.14-3.82c0-2.46-1.83-4-4.44-4a12.34,12.34,0,0,0-8.61,3.56c-.62.63-1.65,1.78-2.32,2.61l-2.3-2.56c1.83-2,8.35-8.89,11.8-12.45-1.26.2-5.73.46-7.8.6a.9.9,0,0,1-.62.43l-.29-4c3.31,0,10.6-.32,12.31-.63l.39-.2,2.09,2.93a1.29,1.29,0,0,1-.75.31c-1.34,1.09-5.5,5.22-7.62,7.32Zm1.37,11.11a9.09,9.09,0,0,0,1.57-.17A2.72,2.72,0,0,0,271,369c-.85,0-1.63.48-1.63,1.31C269.35,371.71,271,371.82,271.84,371.82Z"/><path class="cls-1" d="M294.63,354.23,298.4,353v4.17h3.18v3.12H298.4v7c0,1.92.54,2.72,1.71,2.72a4.87,4.87,0,0,0,1.24-.14l0,3.25a7.29,7.29,0,0,1-2.56.36c-4.14,0-4.21-4-4.21-5.76v-7.38h-1.89v-3.12h1.89Z"/><path class="cls-1" d="M316.85,368.58c0,1.61.06,3.38.1,4.56H313.6l-.18-2.27h-.08a4.47,4.47,0,0,1-4.06,2.59c-3.26,0-5.58-3.33-5.58-8.18,0-5.45,2.71-8.44,5.81-8.44A3.75,3.75,0,0,1,313,358.7h0v-8.63h3.82ZM313,363.67c0-2.33-1.27-3.47-2.53-3.47-2,0-2.95,2.24-2.95,5s1.09,4.82,2.89,4.82c1.14,0,2.59-.92,2.59-3.44Z"/><path class="cls-1" d="M324.29,359.34a4.7,4.7,0,0,1,4.27-2.53c3.15,0,5.48,3.27,5.48,8.18,0,5.88-3,8.47-5.92,8.47a3.87,3.87,0,0,1-3.41-1.87h-.06v8h-3.82V362.38c0-2.07-.05-3.76-.11-5.22h3.34l.18,2.18Zm.36,7.34c0,2.33,1.27,3.45,2.57,3.45,1.93,0,2.94-2.13,2.94-5s-1-4.9-2.87-4.9c-1.48,0-2.64,1.55-2.64,3.47Z"/><path class="cls-1" d="M345.09,360.94a5.54,5.54,0,0,0-1-.08c-1.73,0-3.05,1.29-3.05,4v8.26h-3.83v-11c0-2-.05-3.56-.1-5h3.28l.16,2.78h.1a4.09,4.09,0,0,1,3.57-3.13,3.46,3.46,0,0,1,.85.09Z"/><path class="cls-1" d="M359.77,365c0,6.08-3.52,8.44-6.72,8.44-3.88,0-6.67-3-6.67-8.24,0-5.37,2.92-8.41,6.83-8.41S359.77,360.17,359.77,365Zm-6.64-5.08c-2.12,0-2.87,2.76-2.87,5.19,0,2.85,1,5.2,2.84,5.2s2.79-2.38,2.79-5.22C355.89,362.61,355.09,359.94,353.13,359.94Z"/><path class="cls-1" d="M362.27,370.73a2.47,2.47,0,0,1,2.3-2.73c1.35,0,2.31,1.09,2.31,2.73s-.91,2.73-2.31,2.73A2.44,2.44,0,0,1,362.27,370.73Z"/><path class="cls-1" d="M376.31,371.59c0,2.64-.13,8.41-6.72,8.41l-.36-3.33c3-.26,3.25-2.1,3.25-6.14V357.16h3.83Zm-1.94-16.53a2.28,2.28,0,1,1,2.07-2.27A2.08,2.08,0,0,1,374.37,355.06Z"/><path class="cls-1" d="M383.69,359.34a4.72,4.72,0,0,1,4.27-2.53c3.15,0,5.48,3.27,5.48,8.18,0,5.88-3,8.47-5.92,8.47a3.88,3.88,0,0,1-3.41-1.87h-.05v8h-3.83V362.38c0-2.07-.05-3.76-.1-5.22h3.33l.18,2.18Zm.37,7.34c0,2.33,1.26,3.45,2.56,3.45,1.93,0,2.94-2.13,2.94-5s-1-4.9-2.87-4.9c-1.47,0-2.63,1.55-2.63,3.47Z"/><path class="cls-1" d="M150.65,280.71l-16-7.34,5.44-17.62-32.79-15.08-9.83,15.6-14-6.43L61.59,288.42l76,26.39Zm-66.1-9.63-5.23-2.42,6.38-11.91L91,259.16ZM95.28,276,90,273.61l6.38-11.92,5.24,2.41Zm28.26-24.72a6.39,6.39,0,1,1-8.49,3.13A6.38,6.38,0,0,1,123.54,251.3Zm-11.13,41.52L99.2,286.75l8.11-17.62a7.26,7.26,0,0,1,9.59-3.54l.08,0a7.24,7.24,0,0,1,3.54,9.58Zm16-1.56-5.24-2.4L128,276.25l5.23,2.41Zm10.73,4.94-5.24-2.4,4.92-12.6,5.22,2.4Z"/><path class="cls-1" d="M40.56,218.2c1.11-2-1.9-5.81-6.75-8.53a15.14,15.14,0,0,0-7.7-1.63L40,201.32c-1.66,3.18-1.79,6.36-.29,7.17s4-1,5.69-4c1.29,3.24,3.51,5.39,5.08,4.81s1.92-3.67.79-7c3.28,1.2,6.35,1,7-.58s-1.48-3.83-4.68-5.2c3.08-1.64,5-4.1,4.2-5.6s-3.84-1.46-7,0c.82-3.4.25-6.44-1.37-6.88s-3.65,1.9-4.64,5.23c-2-2.85-4.63-4.43-6-3.52s-1,4,.83,7c-3.46-.41-6.42.49-6.67,2.14s2.47,3.54,6.08,4.09c.13,0,.26,0,.4,0l-12.18,5.9a15.56,15.56,0,0,0,4.26-8c.88-5.48-.25-10.22-2.5-10.58s-4.81,3.8-5.67,9.29c-.71,4.51,1.43,8.71,2.2,10.07l-8.26,4,1,2.14,5.18-2.51c.77,1.76,2.76,5.52,6.38,7.55C34.62,219.62,39.44,220.2,40.56,218.2Zm4-24a3.13,3.13,0,1,1-1.48,4.18A3.12,3.12,0,0,1,44.53,194.16Z"/><polygon class="cls-1" points="45.91 196.84 45.91 196.84 45.91 196.84 45.9 196.84 45.9 196.84 45.9 196.84 45.9 196.84 45.91 196.84 45.91 196.84 45.91 196.84 45.91 196.84"/><path class="cls-1" d="M262.38,254l-20.75-24-51.12-23.82L170,230.39l-20.46,24.25,13.39-.09L155.57,319l106.81-.23L253.78,254Zm-94.21,51.35,2.45-40.9,21.17-.44L194,306.33Zm49.76-43,10.9-.06.06,12-10.89.07Zm.15,27.25-.05-12,10.88-.06.07,12Zm15.78-27.35,10.9-.06.07,12-10.9.05Zm.17,27.25-.08-12,10.91-.05.06,12Z"/><path class="cls-1" d="M185.44,278.49c-1.85,0-3.33,2.91-3.33,6.5s1.48,6.51,3.33,6.51,3.32-2.92,3.32-6.51S187.28,278.49,185.44,278.49Z"/><path class="cls-2" d="M39.1,109.91H78.78s8.25,5.8,7.74,6c-6,22.11-16.7,32.34-36.29,39.56A46.82,46.82,0,0,0,44,148c16.76-5.8,27.57-15.73,30.52-29.4H39.1Zm49.15-9.52a6.34,6.34,0,1,1-6.85,6.32C81.4,103.12,84.6,100.39,88.25,100.39ZM90.89,107a2.84,2.84,0,1,0-2.8,2.44A2.65,2.65,0,0,0,90.89,107Z"/><path class="cls-2" d="M147.91,111v40.26h-10v-3.18H111.07v3.24h-9.75V111Zm-10,28.73V119.32H111V139.7Z"/><path class="cls-2" d="M217.06,109.38a51.77,51.77,0,0,0-4.54-9.47l-5,1.8a52.42,52.42,0,0,1,4.2,9.51Z"/><path class="cls-2" d="M206.29,109.94a40.16,40.16,0,0,0-4.43-9.63l-5,1.79a52.47,52.47,0,0,1,4.15,9.67Z"/><path class="cls-2" d="M179,125.11a89.88,89.88,0,0,0-16-5.57l-4.22,7.33a98.17,98.17,0,0,1,16,6Z"/><path class="cls-2" d="M163.88,146.45s8.31,7.8,8.19,7.22c17.85-5.39,33.79-16.75,42.55-33.3a85.21,85.21,0,0,1-8.5-5.9C197.28,131.91,182.94,141.25,163.88,146.45Z"/><path class="cls-2" d="M187.24,110.91a109,109,0,0,0-16.19-5.84l-4.41,7a91.54,91.54,0,0,1,15.8,6.45Z"/><path class="cls-2" d="M254.56,121.7v6.49h-13v16.72h16.2v6.5h-40.5v-6.5H233.6V128.19H220.91V121.7Z"/><path class="cls-2" d="M316.35,117.18c-7.5,19.38-17.28,30.81-34.36,38.73a34.3,34.3,0,0,0-7.3-6.91c15.62-6.64,24.44-16.33,29-28.46H286.85a66,66,0,0,1-13.31,13.09,49.66,49.66,0,0,0-8-5.87c8.12-5.73,16.25-15.13,19.89-24.77,0,0,11,3.61,10,3.68-1,1.88-2.16,3.71-3.14,5.49h16.2S316.92,116.89,316.35,117.18Z"/><path class="cls-2" d="M356.68,137.23a162.58,162.58,0,0,0-18.89-8.52v26.72H327.37V103.17s11.85,1.94,10.42,2.19v12.25s18.19,7.73,24.33,10.74Z"/><path class="cls-2" d="M167.25,15.5a95.54,95.54,0,0,1-19.68,4.6c.57-3.55,1.35-8.74,1.74-11.91,1.53-.29-15.75-3.93-15.75-3.93-.38,5.47-1,12-1.63,17.27-1.55,0-3.08.11-4.52.11-4.5,0-9.5-.11-12.58-.29l.3,13.82c1.54.09,3.46.09,5.47.09,1.63,0,8.07,0,9.41-.09a184.2,184.2,0,0,1-16,50.77l15.17,5.27c6.42-15.82,12.38-37.62,16-56.82,8.83-.76,18-2.2,24.77-4.4Z"/><path class="cls-2" d="M180.08,3.83l-7.22,3.33c2.52,3.74,5.17,8.36,6.28,12.15l7.63-3.4C185.63,11.57,182,5.59,180.08,3.83Z"/><path class="cls-2" d="M192.93,0,185.7,3.33c2.52,3.73,5.16,8.36,6.27,12.15l7.63-3.41C198.45,7.74,194.84,1.75,192.93,0Z"/><path class="cls-2" d="M159.57,40l3.07,12.49a118.87,118.87,0,0,1,31-3.17l-.1-13.92C182.41,35.35,169.07,37,159.57,40Z"/><path class="cls-2" d="M159.57,83.84l3.07-12.48a118.87,118.87,0,0,0,31,3.18l-.1,13.9C182.41,88.44,169.07,86.81,159.57,83.84Z"/><path class="cls-2" d="M73.88,15.5a95.44,95.44,0,0,1-19.67,4.6c.58-3.55,1.35-8.74,1.74-11.91C57.47,7.9,40.2,4.26,40.2,4.26c-.38,5.47-1,12-1.63,17.27-1.53,0-3.08.11-4.51.11-4.52,0-9.51-.11-12.57-.29l.29,13.82c1.52.09,3.44.09,5.45.09,1.64,0,8.07,0,9.41-.09a184.19,184.19,0,0,1-16,50.77l15.16,5.27c6.43-15.82,12.38-37.62,16-56.82,8.84-.76,17.94-2.2,24.76-4.4Z"/><path class="cls-2" d="M66.2,40l3.08,12.49a118.91,118.91,0,0,1,31-3.17l-.11-13.92C89.05,35.35,75.71,37,66.2,40Z"/><path class="cls-2" d="M66.2,83.84l3.08-12.48a118.92,118.92,0,0,0,31,3.18l-.11,13.9C89.05,88.44,75.71,86.81,66.2,83.84Z"/><path class="cls-2" d="M232.7,70c-4.9,0-6.58-11-7.24-24.64-.44-9.2,1.25-19.87,2.8-27.35,1.05-.1-16-5.09-16-5.09A168.21,168.21,0,0,0,211,36.33a180.06,180.06,0,0,0,1.14,21.13c3.07,21.72,13.24,29.15,22.44,29.15a51.07,51.07,0,0,0,20.35-22.74c-3.37-1.93-6.2-3.31-9.54-6.16A124.29,124.29,0,0,1,232.7,70Z"/><path class="cls-2" d="M273.94,22.28l-13.47,2.19c7.93,8.66,15,23.17,18.19,41.05l13.62-1.72A55.76,55.76,0,0,0,273.94,22.28Z"/><path class="cls-2" d="M301.41,15.29c5.76.39,15.53.39,23.12.39,2.41,0,4.81-.09,7.12-.09-.11-3.94-.21-8.36-.21-11,0,0,16.51,2.5,15.07,2.78v7.78a225.4,225.4,0,0,0,27.75-3l1.24,13.34a255.85,255.85,0,0,1-29,2.49c0,3.94,0,7.69.09,11.33a227.31,227.31,0,0,0,22.86-3L370.52,49a172.87,172.87,0,0,1-23.71,2.5c.09,4,.28,7.57.47,10.84a88.27,88.27,0,0,1,24.86,12.86l-8.73,12.58a71.92,71.92,0,0,0-15.65-11.52c0,3.83,0,14.69-21.4,14.69-13.05,0-21.59-6.82-21.59-16,0-9.89,10.17-16,22.26-16a41,41,0,0,1,6.05.39c0-2.39-.1-4.81-.19-7.39-1.15,0-.38-11.81-.38-11.81-.21-4-.29-7.87-.48-11.72h-7.69c-6.72,0-16.89-.18-22.93-.18Zm32.13,54.8a37.72,37.72,0,0,0-8.36-1.25c-5.29,0-8.89,3.09-8.89,5.88,0,3,3.85,7.26,9.12,7.26,4.81,0,8.73-1.61,8.73-5.26Z"/><path class="cls-2" d="M334.14,52.4c-8.75-.19-22.67-1-28.26-2l.79-12.68c5.3.94,19,2,27.41,2.5"/><path class="cls-2" d="M156.13,202.52c-20.31,16.82-35,3.71-35,3.71s15.48,16.38,37.54-.22c17.35-13.07,29.51-12,29.51-12S169.4,191.55,156.13,202.52Z"/><path class="cls-2" d="M259.74,189.08c-1.79-1.54-5.78-5-6.67-5.89s-8.85,1.15-8.85,1.15-2.47,1.42-1.33-.68a18.12,18.12,0,0,0,.66-2.33l3.76-2L244,178.1c.08-3-.8-6.36-4.69-7.62-6.59-2.13-11.67,6.88-11.67,6.88s-7.9-9.26-8.78-11-5.72-1.26-9.78.39-11.18,3-12.59,2.79-2.52-.38-1,2.29,9.81,3.72,9.81,3.72-2.31,2.77-.15,4.56,5.1.37,5.1.37a5,5,0,0,0,1.25,4.06c1.65,1.53,8-.63,8-.63s-11.53,6.07-15.38,6.37a19.85,19.85,0,0,1-9.5-2s-3.21-.63-1.43,2.29,7.83,3.28,7.83,3.28c-1.4,1.27-9.32.78-9.32.78a4.94,4.94,0,0,0,2.67,3.69c3,1.39,15.21-.51,15.21-.51a54.25,54.25,0,0,0,16.74,1c8.38-1,14.39-9,14.39-9s2.16,4.93,3.68,4.81,2.77-2.2,2.77-2.2,3.47,4.75,5.88,4.35,1.87-4.1,1.87-4.1,5.12,4.13,8.29,1.45C264.54,192.87,261.5,190.59,259.74,189.08Z"/><path class="cls-2" d="M372.5,103.38a9.64,9.64,0,1,1-9.8,9.59A9.57,9.57,0,0,1,372.5,103.38Zm0,17.38A7.47,7.47,0,0,0,380,113a7.51,7.51,0,1,0-7.47,7.74ZM368.81,118v-9.74a19.61,19.61,0,0,1,3.58-.32c1.74,0,4.27.32,4.27,2.85a2.47,2.47,0,0,1-2,2.26v.16c.94.31,1.42,1.1,1.68,2.37a8.53,8.53,0,0,0,.74,2.42h-2.22a8.33,8.33,0,0,1-.73-2.42c-.37-1.53-1.21-1.53-3.21-1.53v4Zm2.16-5.48c1.63,0,3.42,0,3.42-1.47,0-.9-.63-1.53-2.15-1.53a5.86,5.86,0,0,0-1.27.11Z"/></g></g></svg>