<svg xmlns="http://www.w3.org/2000/svg" viewBox="0 0 159.29 152.47"><defs><style>.cls-1,.cls-3{fill:#fff;}.cls-2{fill:none;}.cls-2,.cls-3{stroke:#fff;stroke-linecap:round;stroke-linejoin:round;stroke-width:4px;}.cls-4{fill:#22b1ad;}</style></defs><title>Asset 6</title><g id="Layer_2" data-name="Layer 2"><g id="レイアウト"><path class="cls-1" d="M57.26,64.85a134.84,134.84,0,0,1-14.52-5.14,8.66,8.66,0,0,0-2.53-.57c-8.3-.52-16-6.64-16-18.62,0-11,7-19.28,18-19.28,11.2,0,17.33,8.5,17.33,18.52,0,8.33-3.84,14.22-8.68,16.37v.23c2.81.83,6,1.49,8.85,2.08ZM50.68,40.11c0-6.72-3.14-12.27-8.8-12.27s-9,5.52-8.94,12.42,3.32,12.28,8.87,12.28S50.68,47.29,50.68,40.11Z"/><path class="cls-2" d="M9.23,65.12A40.19,40.19,0,1,1,20.57,76L2,85.47Z"/><path class="cls-3" d="M150.06,130.12A40.14,40.14,0,1,0,138.73,141l18.56,9.48Z"/><path class="cls-4" d="M113.88,118l-2.59,9.43h-8.58l11.2-36.71h10.86l11.43,36.71h-8.94L124.44,118Zm9.33-6.18-2.29-7.8c-.63-2.17-1.28-4.92-1.84-7.07H119c-.54,2.16-1.09,5-1.68,7.08l-2.19,7.79Z"/></g></g></svg>