<svg xmlns="http://www.w3.org/2000/svg" viewBox="0 0 150.5 150.5"><defs><style>.cls-1{fill:#fff;stroke-miterlimit:10;stroke-width:4px;}.cls-1,.cls-2,.cls-3{stroke:#fff;}.cls-2,.cls-3{fill:none;stroke-linecap:round;stroke-linejoin:round;}.cls-2{stroke-width:9px;}.cls-3{stroke-width:12px;}.cls-4{fill:#FC574A;}</style></defs><title>Asset 4</title><g id="Layer_2" data-name="Layer 2"><g id="レイアウト"><path class="cls-1" d="M97.35,108.77h0c0-6.1,1.43,5.44.08.06-4.56-18.11-16.05-31-29.51-31H60c-13.09,0-24.32,12.16-29.12,29.49-1.6,5.77,5.65,4.67,5.65,4.67l8.68,4.35,19,6.86Z"/><rect class="cls-1" x="45.93" y="31.64" width="36.07" height="36.07" rx="18.04"/><circle class="cls-2" cx="64.23" cy="64.23" r="59.73"/><line class="cls-3" x1="118.67" y1="118.67" x2="144.5" y2="144.5"/><path class="cls-4" d="M64.23,119.58a55.36,55.36,0,1,1,55.35-55.35A55.41,55.41,0,0,1,64.23,119.58Zm0-100A44.67,44.67,0,1,0,108.9,64.23,44.72,44.72,0,0,0,64.23,19.56Z"/></g></g></svg>