<svg xmlns="http://www.w3.org/2000/svg" viewBox="0 0 190.07 195.08"><defs><style>.cls-1{fill:#fff;}</style></defs><title>Asset 1</title><g id="Layer_2" data-name="Layer 2"><g id="レイアウト"><path class="cls-1" d="M186.77,99.72c0,35.31-41.61,63.93-91.53,63.93S3.71,135,3.71,99.72c0-11.22-2.39-7.68-2.39,5.85,0,37.71,42,68.28,93.92,68.28s93.94-30.57,93.94-68.28C189.18,92,186.77,88.5,186.77,99.72Z"/><path class="cls-1" d="M49.51,103.92a3.74,3.74,0,0,0-5.2-.85,3.78,3.78,0,0,0-.59.54,3.71,3.71,0,0,0-4.54-.14,3.59,3.59,0,0,0-1.08,1.25,2.17,2.17,0,0,0-.19-.33,3.72,3.72,0,0,0-5.21-.83,3.64,3.64,0,0,0-1.47,2.35,3.72,3.72,0,0,0-5.84,4.59,3.08,3.08,0,0,0,.24.27,3.72,3.72,0,0,0-.56,7.4l-16.2,6.35,5.35,8.12,14.13-11.15a3.92,3.92,0,0,0,1.32.11,3.71,3.71,0,0,0,5.57,4.52,3.6,3.6,0,0,0,1.15-1.37,3.71,3.71,0,0,0,4.93-4.43,3.93,3.93,0,0,0,.69-.39,3.72,3.72,0,0,0,1.29-4.31,3.73,3.73,0,0,0,3-5.81,3.65,3.65,0,0,0,2.36-.69A3.71,3.71,0,0,0,49.51,103.92Zm-21.1,8.18a.46.46,0,0,0-.07-.07h.07Z"/><path class="cls-1" d="M188.71,100.38l-20.85-5.6-6.26,17.63,7,2.49-3.43,9.66,14.47,8,3.7-9.58,1.28-2.49ZM177,100l7.87,2.78-1.54,4.36-7.87-2.8Zm-2.07,5.9,7.85,2.79-1.53,4.35-7.87-2.8Z"/><path class="cls-1" d="M161.07,115l-11.91,2.88,7.87,32.6,11.91-2.89Zm2.66,19-3.08.74-.74-3.09,3.08-.75Zm-2.84-11.81.75,3.1-3.1.75-.75-3.1Zm-8.78-2.48,3.08-.74.76,3.08-3.1.75Zm2.1,8.71,3.09-.75.75,3.09-3.09.75Zm2.86,11.78-.76-3.08,3.1-.74.74,3.09Z"/><path class="cls-1" d="M144,113.72l-14.5,4.2L141,157.61l14.49-4.21Zm3.69,23.46-3.76,1.09-1.09-3.76,3.76-1.1Zm-1.54-5.3L142.34,133l-1.1-3.75,3.77-1.1Zm-1.53-5.3-3.77,1.09-1.09-3.77,3.77-1.09Zm-2.62-9,1.08,3.75-3.76,1.1-1.1-3.78Zm-9.42,2.72,3.76-1.09,1.09,3.76L133.61,124Zm1.53,5.3,3.77-1.1,1.09,3.77-3.77,1.09Zm1.54,5.3,3.76-1.09,1.09,3.76-3.76,1.09Zm1.54,5.29,3.76-1.09,1.1,3.76-3.77,1.09Zm2.62,9.06-1.09-3.76,3.77-1.09,1.09,3.77Zm4.57-5.39,3.75-1.1,1.1,3.77-3.76,1.09Z"/><path class="cls-1" d="M7,180.47c0,.14-.14.24-.34.27,0,.19,0,.44,0,.72.17,2.24,1,7.75,5.46,10a4.86,4.86,0,0,0-1.15,1.42,11.09,11.09,0,0,1-5-7,12,12,0,0,1-4.63,7A5.35,5.35,0,0,0,0,191.6c5.05-3.11,4.87-9.47,5-11.32Z"/><path class="cls-1" d="M22.6,185.48a.25.25,0,0,1-.12,0,.5.5,0,0,1-.29-.09c-3.76,1.12-6.56,2.62-6.55,4.11,0,1,1,1.45,2.72,1.45a27.09,27.09,0,0,0,4.43-.37l.15,1.78a43.19,43.19,0,0,1-4.55.26c-2.45,0-4.37-.67-4.37-3,0-1.46,1.17-2.68,3-3.79-.46-1-.6-2.54-.58-5.54l2.22.2c0,.21-.14.32-.42.36,0,.4,0,.78,0,1.13a11.19,11.19,0,0,0,.29,3.06,37.29,37.29,0,0,1,3.54-1.51Z"/><path class="cls-1" d="M26.41,181.9c.77.06,2,.06,2.9.06.4,0,.82,0,1.19,0,0-.6,0-1.28,0-1.69l1.94.09c0,.16-.12.25-.32.3v1.24a23,23,0,0,0,3.78-.47L36,183a29.62,29.62,0,0,1-3.93.42c0,.65,0,1.29,0,1.93a22.22,22.22,0,0,0,3.15-.48l.13,1.54a20.77,20.77,0,0,1-3.25.41c0,.68.05,1.3.07,1.8a12,12,0,0,1,3.38,2l-1,1.51a10.37,10.37,0,0,0-2.38-1.79v.4c0,1.14-.86,1.91-2.61,1.91s-2.79-.9-2.79-2.21,1.34-2.24,2.85-2.24a5.36,5.36,0,0,1,1,.08c0-.41,0-.88,0-1.38h-1c-1.71,0-2.77-.3-2.75-1.33,0-.58.38-1.11,1.3-1.72l1.06.61c-.45.22-.76.47-.76.68s.16.33,1.41.33h.67l-.07-2H29.31l-2.9,0Zm4.32,7.77a4.24,4.24,0,0,0-1.12-.19c-.77,0-1.36.36-1.36.9s.61.84,1.43.84,1.06-.34,1.06-1Z"/><path class="cls-1" d="M47.82,183.41a25.35,25.35,0,0,1-4.94.74,14.38,14.38,0,0,1-.46,2.66,5.61,5.61,0,0,1,3.11-1.13,2.78,2.78,0,0,1,3,3.09c0,2.86-2.38,3.88-6.66,4a10.09,10.09,0,0,0-.46-1.58c3.53-.1,5.51-.72,5.51-2.36a1.45,1.45,0,0,0-1.66-1.57,4.3,4.3,0,0,0-3.42,2l-1.52-.73a10.52,10.52,0,0,0,1-4.3H38.63v-1.7c.58,0,1.91,0,2.81,0,.06-.72.07-1.56.06-2.34l2,.19a.38.38,0,0,1-.37.34c0,.59-.07,1.23-.11,1.77a20.93,20.93,0,0,0,4.53-.81Z"/><path class="cls-1" d="M62.05,186.53a.19.19,0,0,1-.1,0,.39.39,0,0,1-.18-.06c-.93.3-2.17.74-3.09,1.13,0,.28,0,.6,0,.93s0,.69,0,1.09l-1.58.13c0-.51.06-1.08,0-1.48-1,.54-1.68,1.24-1.68,1.77s.68.86,2.09.86a25.49,25.49,0,0,0,3.1-.15l0,1.61a30.46,30.46,0,0,1-3.14.1c-2.41,0-3.61-.6-3.61-2.32,0-1.11,1.3-2.37,3.06-3.37,0-.4-.22-.78-.6-.78-.82,0-1.7.48-2.72,1.76-.3.39-.77.93-1.3,1.52l-1.11-1.2a14.09,14.09,0,0,0,1.52-1.6,8.84,8.84,0,0,0,1.4-2.91l-.47,0H51.78V182c.7,0,1.6,0,2.15,0h.66c.11-.57.19-1.12.26-1.83l1.92.2a.36.36,0,0,1-.32.27c-.06.44-.16.86-.26,1.29a12.75,12.75,0,0,0,3.8-.76l.25,1.63a17.18,17.18,0,0,1-4.46.68,10,10,0,0,1-.61,1.63h0a2.76,2.76,0,0,1,1.71-.68c.72,0,1.36.57,1.55,1.62,1-.46,2.13-.93,3-1.33Z"/><path class="cls-1" d="M64.27,186.37v-1.62h9.87v1.62H70.36l.25.08a.27.27,0,0,1-.29.18,7.93,7.93,0,0,1-3.75,6.05,9.64,9.64,0,0,0-1.22-1.15,6.1,6.1,0,0,0,3.3-5.16Zm8.64-3.89a8.08,8.08,0,0,0-.63-1.09v1.26H65.42V181H72a4.42,4.42,0,0,0-.45-.54l.71-.58a10.76,10.76,0,0,1,1.38,2Zm1.75-.37a11,11,0,0,0-1.33-2l.68-.56a11.45,11.45,0,0,1,1.39,1.94Z"/><path class="cls-1" d="M87.05,185.08H84.59v.53c0,2.9-.88,5.42-3.93,7a10,10,0,0,0-1.15-1.21A5.79,5.79,0,0,0,83,185.62v-.54H79.93v3H78.37v-3H76.21v-1.67h2.16v-2.85l1.93.14a.39.39,0,0,1-.37.34v2.37H83v-3l2,.12c0,.14-.12.26-.36.32v2.56h2.46Zm-1.76-4.2a8.23,8.23,0,0,1,1.27,1.66l-.66.6a8.79,8.79,0,0,0-1.25-1.72Zm1.27-1.18a8.52,8.52,0,0,1,1.32,1.69l-.64.57a9.21,9.21,0,0,0-1.3-1.71Z"/><path class="cls-1" d="M99.17,181.66a.39.39,0,0,1-.4.16A34,34,0,0,1,95.4,185c.14,0,.27.11.4.15a.4.4,0,0,1-.36.27v7.23H93.77V186.1a35.75,35.75,0,0,1-4.14,2.6,6.59,6.59,0,0,0-.95-1.35,28.53,28.53,0,0,0,8.92-7Z"/><path class="cls-1" d="M102.25,181.29a15.65,15.65,0,0,1,3.66,1.83l-.83,1.58a18.22,18.22,0,0,0-3.57-1.9Zm-.43,9.39a13.28,13.28,0,0,0,8.56-8,9.22,9.22,0,0,0,1.46,1,15.06,15.06,0,0,1-8.67,8.37.49.49,0,0,1-.21.36Z"/><path class="cls-1" d="M113.42,182.19l2.86-.06,2.38-.09c0-.21,0-1.33-.08-1.95l2.06.11a.41.41,0,0,1-.34.3c0,.34,0,.93,0,1.5l4-.11v1.64c-.36,0-.83,0-1.37,0-.75,0-1.64,0-2.56,0l.07,2.47a5.41,5.41,0,0,1,.19,1.59,5.26,5.26,0,0,1-.26,1.82,6,6,0,0,1-3.54,3.55,8.86,8.86,0,0,0-1.16-1.37,5.06,5.06,0,0,0,2.81-2.09h0a1.06,1.06,0,0,1-.69.26,2.37,2.37,0,0,1-2.22-2.52,2.54,2.54,0,0,1,2.41-2.69,1.8,1.8,0,0,1,.81.2c0-.13,0-.9,0-1.18-.92,0-5,.18-5.24.2Zm5.53,5c0-.3,0-1.27-1-1.27-.58,0-1.06.48-1.07,1.3a1.11,1.11,0,0,0,1,1.19C118.58,188.43,119,187.91,119,187.21Z"/><path class="cls-1" d="M130.66,185.76a5.9,5.9,0,0,1,2.39-.51,3.12,3.12,0,0,1,3.21,3.46c0,2.49-1.95,3.93-4.67,3.93-1.62,0-2.75-.82-2.75-2.22a2.15,2.15,0,0,1,2.2-2,2.58,2.58,0,0,1,2.53,2.19,2,2,0,0,0,1-1.84,2,2,0,0,0-2.15-2,6,6,0,0,0-4.16,1.72c-.3.31-.8.86-1.13,1.26l-1.11-1.23c.89-1,4-4.3,5.71-6-.61.09-2.77.22-3.77.29a.48.48,0,0,1-.3.21l-.14-2c1.6,0,5.12-.15,5.95-.3l.19-.1,1,1.42a.63.63,0,0,1-.36.15c-.65.53-2.67,2.52-3.69,3.53Zm.66,5.37a5.88,5.88,0,0,0,.77-.08,1.33,1.33,0,0,0-1.18-1.27.71.71,0,0,0-.79.64C130.12,191.07,130.91,191.13,131.32,191.13Z"/><path class="cls-1" d="M142.33,182.62l1.82-.59v2h1.54v1.51h-1.54v3.36c0,.93.26,1.32.83,1.32a2.53,2.53,0,0,0,.6-.07l0,1.56a3.19,3.19,0,0,1-1.23.18c-2,0-2-1.93-2-2.78v-3.57h-.91V184h.91Z"/><path class="cls-1" d="M153.07,189.56c0,.78,0,1.64.05,2.2H151.5l-.09-1.09h0a2.16,2.16,0,0,1-2,1.25c-1.58,0-2.7-1.61-2.7-4,0-2.63,1.31-4.08,2.81-4.08a1.82,1.82,0,0,1,1.68.91h0v-4.18h1.85Zm-1.85-2.37c0-1.13-.61-1.68-1.22-1.68-.95,0-1.43,1.08-1.43,2.43s.52,2.33,1.4,2.33c.55,0,1.25-.45,1.25-1.67Z"/><path class="cls-1" d="M156.66,185.09a2.27,2.27,0,0,1,2.06-1.22c1.52,0,2.65,1.58,2.65,4,0,2.84-1.45,4.09-2.86,4.09a1.88,1.88,0,0,1-1.65-.9h0v3.84H155v-8.3c0-1,0-1.81-.05-2.52h1.61l.08,1.05Zm.18,3.55c0,1.13.61,1.67,1.23,1.67.94,0,1.43-1,1.43-2.41s-.48-2.38-1.39-2.38c-.71,0-1.27.75-1.27,1.68Z"/><path class="cls-1" d="M166.71,185.87a2.23,2.23,0,0,0-.47,0c-.84,0-1.48.62-1.48,1.94v4h-1.85v-5.31c0-.95,0-1.72,0-2.41h1.59l.08,1.35h0a2,2,0,0,1,1.73-1.52,1.62,1.62,0,0,1,.41,0Z"/><path class="cls-1" d="M173.8,187.84c0,2.94-1.69,4.08-3.25,4.08-1.87,0-3.22-1.47-3.22-4s1.41-4.07,3.3-4.07S173.8,185.5,173.8,187.84Zm-3.21-2.45c-1,0-1.39,1.33-1.39,2.51,0,1.37.48,2.51,1.38,2.51s1.35-1.16,1.35-2.53C171.93,186.67,171.54,185.39,170.59,185.39Z"/><path class="cls-1" d="M175,190.6a1.19,1.19,0,0,1,1.11-1.32,1.17,1.17,0,0,1,1.11,1.32c0,.78-.44,1.32-1.11,1.32A1.17,1.17,0,0,1,175,190.6Z"/><path class="cls-1" d="M181.79,191c0,1.27-.06,4.06-3.25,4.06l-.17-1.61c1.47-.12,1.57-1,1.57-3V184h1.85Zm-.94-8a1.1,1.1,0,0,1,0-2.19,1.1,1.1,0,0,1,0,2.19Z"/><path class="cls-1" d="M185.36,185.09a2.27,2.27,0,0,1,2.06-1.22c1.52,0,2.65,1.58,2.65,4,0,2.84-1.45,4.09-2.86,4.09a1.88,1.88,0,0,1-1.65-.9h0v3.84h-1.84v-8.3c0-1,0-1.81-.06-2.52h1.62l.08,1.05Zm.17,3.55c0,1.13.62,1.67,1.24,1.67.94,0,1.43-1,1.43-2.41s-.48-2.38-1.39-2.38c-.72,0-1.28.75-1.28,1.68Z"/><path class="cls-1" d="M71.34,144.26l-8.21-3.77,2.79-9.05-16.85-7.75-5,8-7.18-3.3L25.57,148.23l39.08,13.56Zm-34-4.94-2.69-1.25L38,132l2.69,1.24Zm5.51,2.54-2.68-1.25,3.27-6.12,2.69,1.24ZM57.4,129.15a3.29,3.29,0,0,1-2.75,6,3.29,3.29,0,0,1,2.75-6Zm-5.71,21.34-6.79-3.12,4.17-9.05A3.71,3.71,0,0,1,54,136.5l0,0a3.71,3.71,0,0,1,1.82,4.92Zm8.2-.8-2.69-1.24L59.72,142l2.69,1.24Zm5.5,2.54L62.71,151l2.53-6.47,2.68,1.24Z"/><path class="cls-1" d="M14.77,112.15c.57-1-1-3-3.47-4.4a7.75,7.75,0,0,0-4-.82l7.13-3.46c-.86,1.63-.92,3.27-.15,3.69s2-.54,2.92-2.09c.66,1.67,1.8,2.78,2.61,2.48s1-1.89.4-3.58c1.7.61,3.28.49,3.59-.3s-.76-2-2.41-2.67c1.58-.84,2.56-2.11,2.17-2.89s-2-.75-3.61,0c.42-1.75.13-3.31-.7-3.54s-1.88,1-2.39,2.69c-1-1.46-2.39-2.28-3.1-1.81s-.52,2,.43,3.59c-1.78-.23-3.3.24-3.43,1.09s1.27,1.82,3.12,2.1h.21l-6.26,3a8,8,0,0,0,2.19-4.09c.45-2.82-.13-5.26-1.29-5.43s-2.46,1.95-2.91,4.76A8.54,8.54,0,0,0,7,105.74l-4.24,2.05.53,1.11,2.67-1.3a8.3,8.3,0,0,0,3.26,3.89C11.7,112.87,14.19,113.17,14.77,112.15Zm2-12.37a1.61,1.61,0,0,1,1.38,2.92,1.61,1.61,0,1,1-1.38-2.92Z"/><polygon class="cls-1" points="17.51 101.16 17.51 101.16 17.51 101.16 17.51 101.16 17.51 101.16 17.51 101.16 17.51 101.16 17.51 101.16 17.51 101.16 17.51 101.16 17.51 101.16"/><path class="cls-1" d="M128.76,130.53,118.1,118.18,91.82,105.94,81.3,118.41,70.79,130.87l6.88,0L73.87,164l54.89-.12-4.42-33.28ZM80.35,156.92l1.25-21,10.88-.22,1.15,21.75Zm25.57-22.11,5.6,0,0,6.18L106,141Zm.07,14,0-6.17,5.6,0,0,6.16Zm8.11-14.05,5.61,0,0,6.17-5.6,0Zm.09,14,0-6.18,5.61,0,0,6.16Z"/><path class="cls-1" d="M89.22,143.12c-1,0-1.71,1.5-1.71,3.34s.76,3.35,1.71,3.35,1.7-1.51,1.7-3.35S90.17,143.12,89.22,143.12Z"/><path class="cls-1" d="M14,56.49H34.4s4.24,3,4,3.1C35.3,70.94,29.8,76.21,19.73,79.91a23.85,23.85,0,0,0-3.21-3.85C25.13,73.08,30.69,68,32.2,61H14ZM39.27,51.6a3.26,3.26,0,1,1-3.51,3.25A3.4,3.4,0,0,1,39.27,51.6ZM40.62,55a1.45,1.45,0,1,0-1.44,1.26A1.35,1.35,0,0,0,40.62,55Z"/><path class="cls-1" d="M69.94,57V77.72H64.8V76.09H51v1.66H46V57ZM64.77,71.8V61.32H51V71.8Z"/><path class="cls-1" d="M105.47,56.22a26.5,26.5,0,0,0-2.33-4.87l-2.55.92a28.42,28.42,0,0,1,2.15,4.89Z"/><path class="cls-1" d="M99.93,56.51a19.66,19.66,0,0,0-2.28-4.95l-2.58.91a27.3,27.3,0,0,1,2.14,5Z"/><path class="cls-1" d="M85.93,64.31a45.38,45.38,0,0,0-8.22-2.87l-2.17,3.77a51.42,51.42,0,0,1,8.22,3.06Z"/><path class="cls-1" d="M78.14,75.27s4.27,4,4.21,3.7c9.17-2.76,17.36-8.6,21.86-17.1a47.5,47.5,0,0,1-4.36-3C95.3,67.79,87.94,72.6,78.14,75.27Z"/><path class="cls-1" d="M90.15,57a55.83,55.83,0,0,0-8.32-3l-2.27,3.58a46.21,46.21,0,0,1,8.11,3.31Z"/><path class="cls-1" d="M124.75,62.55v3.34h-6.68v8.59h8.32v3.34H105.58V74.48H114V65.89h-6.52V62.55Z"/><path class="cls-1" d="M156.5,60.22c-3.85,10-8.88,15.84-17.66,19.9a18.45,18.45,0,0,0-3.76-3.55c8-3.4,12.57-8.39,14.91-14.61h-8.65a34.12,34.12,0,0,1-6.84,6.71,26,26,0,0,0-4.11-3,29.68,29.68,0,0,0,10.22-12.73s5.66,1.86,5.14,1.89c-.5,1-1.12,1.91-1.63,2.83h8.33S156.79,60.08,156.5,60.22Z"/><path class="cls-1" d="M177.22,70.53a85.15,85.15,0,0,0-9.69-4.38V79.89h-5.37V53s6.08,1,5.37,1.13v6.3s9.33,4,12.5,5.52Z"/><path class="cls-1" d="M79.87,8a48.23,48.23,0,0,1-10.11,2.37c.29-1.82.69-4.49.89-6.11.79-.15-8.09-2-8.09-2-.2,2.81-.5,6.17-.84,8.88-.8,0-1.58,0-2.32,0-2.31,0-4.88,0-6.47-.15l.15,7.11c.79.05,1.79.05,2.82.05.83,0,4.14,0,4.83-.05A94.85,94.85,0,0,1,52.5,44.17l7.79,2.71a166.65,166.65,0,0,0,8.23-29.2,60.41,60.41,0,0,0,12.73-2.27Z"/><path class="cls-1" d="M86.46,2,82.75,3.69A25,25,0,0,1,86,9.93L89.9,8.18A16.9,16.9,0,0,0,86.46,2Z"/><path class="cls-1" d="M93.07,0,89.36,1.71A25.6,25.6,0,0,1,92.58,8L96.5,6.2A17.23,17.23,0,0,0,93.07,0Z"/><path class="cls-1" d="M75.92,20.54,77.5,27a60.59,60.59,0,0,1,15.94-1.62l0-7.16A64.25,64.25,0,0,0,75.92,20.54Z"/><path class="cls-1" d="M75.92,43.1l1.58-6.42a61,61,0,0,0,15.94,1.63l0,7.16A64.25,64.25,0,0,1,75.92,43.1Z"/><path class="cls-1" d="M31.89,8a48.38,48.38,0,0,1-10.11,2.37c.3-1.82.69-4.49.89-6.11.79-.15-8.09-2-8.09-2-.2,2.81-.5,6.17-.84,8.88-.79,0-1.58,0-2.32,0-2.32,0-4.88,0-6.46-.15l.15,7.11c.78.05,1.77.05,2.81.05.83,0,4.14,0,4.83-.05A94.52,94.52,0,0,1,4.51,44.17l7.8,2.71a166.65,166.65,0,0,0,8.23-29.2,60.41,60.41,0,0,0,12.73-2.27Z"/><path class="cls-1" d="M27.94,20.54,29.52,27a60.55,60.55,0,0,1,15.94-1.62l-.06-7.16A64.17,64.17,0,0,0,27.94,20.54Z"/><path class="cls-1" d="M27.94,43.1l1.58-6.42a61,61,0,0,0,15.94,1.63l-.06,7.16A64.17,64.17,0,0,1,27.94,43.1Z"/><path class="cls-1" d="M113.51,36c-2.52,0-3.38-5.67-3.72-12.67a60.42,60.42,0,0,1,1.43-14.06c.55,0-8.23-2.6-8.23-2.6a85.42,85.42,0,0,0-.63,12,90.58,90.58,0,0,0,.58,10.86c1.59,11.17,6.81,15,11.53,15a26.21,26.21,0,0,0,10.46-11.69,27.84,27.84,0,0,1-4.9-3.17A64.51,64.51,0,0,1,113.51,36Z"/><path class="cls-1" d="M134.7,11.46l-6.92,1.11c4.08,4.46,7.71,11.92,9.35,21.11l7-.88A28.63,28.63,0,0,0,134.7,11.46Z"/><path class="cls-1" d="M148.82,7.86c3,.21,8,.21,11.88.21,1.24,0,2.47-.05,3.65-.05,0-2-.1-4.29-.1-5.68,0,0,8.49,1.29,7.75,1.44v4a119.94,119.94,0,0,0,14.26-1.52l.63,6.84A129.47,129.47,0,0,1,172,14.37c0,2,0,4,.05,5.83a112,112,0,0,0,11.74-1.54l.54,6.52a89,89,0,0,1-12.18,1.28c0,2.08.14,3.89.25,5.58a45.37,45.37,0,0,1,12.77,6.61l-4.49,6.46a37.21,37.21,0,0,0-8-5.92c0,2,0,7.54-11,7.54-6.7,0-11.1-3.49-11.1-8.23,0-5.08,5.23-8.24,11.44-8.24a21.7,21.7,0,0,1,3.12.2c0-1.23,0-2.47-.11-3.8-.58,0-.19-6.06-.19-6.06-.1-2.08-.15-4.05-.24-6h-3.95c-3.46,0-8.68-.11-11.79-.11ZM165.33,36a19.55,19.55,0,0,0-4.29-.64c-2.72,0-4.57,1.59-4.57,3s2,3.73,4.68,3.73c2.48,0,4.48-.84,4.48-2.71Z"/><path class="cls-1" d="M165.63,26.93a124.78,124.78,0,0,1-14.52-1l.42-6.51c2.71.48,9.78,1,14.08,1.28"/><path class="cls-1" d="M74.16,104.09c-10.44,8.64-18,1.9-18,1.9s8,8.42,19.29-.12c8.92-6.71,15.17-6.18,15.17-6.18S81,98.45,74.16,104.09Z"/><path class="cls-1" d="M127.41,97.17c-.92-.79-3-2.57-3.43-3s-4.54.6-4.54.6-1.28.73-.69-.35a10.6,10.6,0,0,0,.34-1.2l1.93-1-1.72-.63c0-1.54-.41-3.27-2.42-3.91-3.38-1.1-6,3.53-6,3.53s-4.06-4.75-4.51-5.67-2.94-.65-5,.19a21.31,21.31,0,0,1-6.46,1.44c-.71-.13-1.3-.19-.52,1.18s5,1.9,5,1.9-1.19,1.43-.08,2.35a2.67,2.67,0,0,0,2.62.2,2.61,2.61,0,0,0,.64,2.08c.86.79,4.13-.33,4.13-.33s-5.94,3.13-7.91,3.28a10.26,10.26,0,0,1-4.88-1s-1.66-.34-.74,1.16,4,1.69,4,1.69c-.71.65-4.78.4-4.78.4a2.52,2.52,0,0,0,1.37,1.9c1.57.71,7.81-.26,7.81-.26a27.76,27.76,0,0,0,8.61.49c4.3-.52,7.39-4.62,7.39-4.62s1.11,2.54,1.9,2.48,1.42-1.14,1.42-1.14,1.78,2.45,3,2.24,1-2.11,1-2.11,2.63,2.13,4.25.75C129.88,99.12,128.31,98,127.41,97.17Z"/><path class="cls-1" d="M185.11,53.58a4.65,4.65,0,1,1-4.73,4.62A4.61,4.61,0,0,1,185.11,53.58Zm0,8.38a3.6,3.6,0,0,0,3.6-3.74,3.62,3.62,0,1,0-3.6,3.74Zm-1.78-1.32v-4.7a9.3,9.3,0,0,1,1.73-.15c.83,0,2.05.15,2.05,1.37a1.18,1.18,0,0,1-1,1.09v.08c.46.15.68.53.81,1.14a4.74,4.74,0,0,0,.35,1.17h-1.06a4,4,0,0,1-.36-1.17c-.17-.74-.58-.74-1.55-.74v1.91Zm1-2.64c.79,0,1.65,0,1.65-.72,0-.43-.3-.73-1-.73a2.55,2.55,0,0,0-.61.05Z"/></g></g></svg>